<ttFont>
          <CharString index="0">
            rmoveto
            -195.039993286 -21 callsubr
            -231 117.130004883 -132.720001221 195.039993286 195.419998169 116.75 457 callsubr
            -116.75 131.850006104 -195.419998169 hvcurveto
            -120.339996338 vmoveto
            93.1000061035 47.7100067139 457 callgsubr
            -47.2200012207 -68.0399932861 -93.5899963379 -90.8300018311 -49.9799957275 68.0399932861 175.339996338 175.339996338 48.8500061035 67.9299926758 91.9600067139 hvcurveto
            endchar
          </CharString>
          <CharString index="1">
            rmoveto
            -173.789993286 -101.130004883 -114.600006104 -181.759994507 -189.619995117 101.130004883 -111.470001221 173.789993286 173.789993286 225 callsubr
            115.710006714 185.130004883 186.380004883 -100.75 -32 callsubr
            -173.789993286 hvcurveto
            -112.850006104 vmoveto
            74.3399963379 36.5800018311 238 callsubr
            537 callgsubr
            -35.0899963379 -52.6600036621 -75.8300018311 -74.0800018311 -37.2200012207 52.6600036621 136.210006714 131.960006714 37.0899963379 51.5399932861 74.2100067139 hvcurveto
            endchar
          </CharString>
          <CharString index="2">
            -123.830001831 -105.039993286 -60.3699951172 -110.929992676 -82.2599945068 42.4400024414 -56.2100067139 143.039993286 -42.4700012207 hvcurveto
            80.3200073242 -23.3999938965 21.0200042725 -15.7700042725 -35.1900024414 vvcurveto
            -33.2299957275 -30.9600067139 -23.5299987793 -55.5500030518 -57.7700042725 -53.7400054932 20.7599945068 36.3699951172 -43.4900054932 vhcurveto
            -78.3899993896 -85.6399993896 rlineto
            -46.6199951172 49 81.8300018311 -38.9600067139 108.919998169 hhcurveto
            152.190002441 91.8300018311 75.6000061035 108.960006714 100.779998779 -61.1900024414 49.2100067139 -117.300003052 36.4700012207 hvcurveto
            -89.4299926758 27.8800048828 -19.6399993896 8.78999328613 30.9299926758 vvcurveto
            29.4499969482 29.1900024414 16.5299987793 49.2799987793 45.6399993896 42.6300048828 -15.6199951172 -30.6399993896 39.75 vhcurveto
            72.1699981689 82.3899993896 rlineto
            return
          </CharString>
          <CharString index="3">
            -143.809997559 -106.190002441 -78.3600006104 -122.190002441 -103.270004272 56.9299926758 -63.4499969482 155.169998169 -48.4700012207 hvcurveto
            100.809997559 -31.0200042725 25.7700042725 -22.5299987793 -50.8099975586 vvcurveto
            -53.7400054932 -42.0899963379 -31.8999938965 -67.9299926758 -68.7700042725 -56 25.75 43.7599945068 -48.8699951172 vhcurveto
            -83.6399993896 -92.1300048828 rlineto
            -55.3800048828 57 85.4700012207 -43.5800018311 120.169998169 hhcurveto
            172.429992676 102.830001831 90.2200012207 128.720001221 127.63999939 -75.3200073242 54.8300018311 -130.539993286 41.4700012207 hvcurveto
            -108.440002441 34.2599945068 -26.3699951172 17.4199981689 44.3000030518 vvcurveto
            44.2100067139 36.3200073242 23.8999938965 57.1699981689 55.75 48 -18.6199951172 -39.6399993896 47.5099945068 vhcurveto
            77.0399932861 89.2599945068 rlineto
            return
          </CharString>
          <CharString index="4">
            -134.529998779 -82.25 -70.9600067139 -91.1000061035 -81.8500061035 51.2299957275 -53.9799957275 105.279998779 -30 hvcurveto
            95.7799987793 -27.6199951172 16.6600036621 -10.6600036621 -36.9499969482 vvcurveto
            -31.0500030518 -29.6799926758 -18.5500030518 -49.0800018311 -50.7700042725 -49 21.4900054932 31.5099945068 -38.7599945068 vhcurveto
            -77.7700042725 -86.6399993896 rlineto
            -47.4700012207 51.6000061035 77.6999969482 -31.4900054932 92.1199951172 hhcurveto
            132.529998779 103.490005493 64.9499969482 110 95.1100006104 -59.0200042725 44 -104.779998779 29.8699951172 hvcurveto
            -94.9600067139 27.6100006104 -14.3000030518 12.5299987793 27.4299926758 vvcurveto
            24.5700073242 21.4400024414 16.4100036621 48.1699981689 40.2799987793 44.1199951172 -15 -27.3899993896 41.0200042725 vhcurveto
            58.6799926758 89.6399993896 rlineto
            return
          </CharString>
          <CharString index="5">
            rmoveto
            16.5099945068 -93.3999938965 10.1199951172 -94.9799957275 -82.4700012207 vvcurveto
            -122.130004883 -46.8699951172 -39.0200042725 -42.6799926758 -35.9499969482 -23.9199981689 22.5500030518 60.9199981689 vhcurveto
            348.529998779 -158 -357.149993896 vlineto
            -132.559997559 94.5599975586 -58.6300048828 111.830001831 127.570007324 131.830001831 75.5099945068 189.630004883 110.470001221 -13.7400054932 91.3399963379 -15.3699951172 81.3899993896 vhcurveto
            endchar
          </CharString>
          <CharString index="6">
            rmoveto
            27.1399993896 -114.580001831 rlineto
            166.11000061 hlineto
            -75 callsubr
            26.8300018311 114.580001831 rlineto
            135.779998779 111.229995728 rmoveto
            -109.75 hlineto
            return
          </CharString>
          <CharString index="7">
            rmoveto
            35.6900024414 -149.339996338 rlineto
            173.470001221 hlineto
            -75 callgsubr
            35.4700012207 149.339996338 rlineto
            173.929992676 118.710006714 rmoveto
            -145.740005493 hlineto
            return
          </CharString>
          <CharString index="8">
            -55 -38.5 -39 -51 -50.5 38.5 -38.5 55 55 38.5 38.5 50.5 51 -38.5 39 -55 hvcurveto
            return
          </CharString>
          <CharString index="9">
            -159.190002441 -100.699996948 -118.229995728 -168.619995117 -168.130004883 99.8300018311 -110.339996338 163.169998169 72.8300018311 57.3600006104 23.7299957275 39.25 48.2400054932 hvcurveto
            -71.3899993896 100.979995728 rlineto
            -79 callsubr
            return
          </CharString>
          <CharString index="10">
            -159.169998169 -116.729995728 -109.220001221 -186.380004883 -196.979995728 111.600006104 -104.869995117 166.929992676 86.3600006104 66.4700012207 35.7400054932 41.4700012207 42.3399963379 hvcurveto
            -70.9100036621 198 callgsubr
            -35.2400054932 -33.5099945068 -21.5099945068 -45.2899932861 hhcurveto
            -76.0500030518 -49.0800018311 56.7799987793 125.869995117 122.880004883 48.9600067139 58.6300048828 72.4400024414 42 32.8800048828 -15.25 -25.5099945068 30.3999938965 hvcurveto
            75.3899993896 88.7599945068 rlineto
            return
          </CharString>
          <CharString index="11">
            -27.1300048828 -35.5099945068 -26.0200042725 -12.1300048828 -37.1499938965 hhcurveto
            -63.0800018311 -42.6600036621 35.8300018311 118.699996948 118.940002441 39.5500030518 45.6999969482 67.4299926758 36.5299987793 31.1300048828 -11.75 -26.7599945068 33.1300048828 hvcurveto
            68.0399932861 94.25 return
          </CharString>
          <CharString index="12">
            rmoveto
            -101 callgsubr
            hvcurveto
            hintmask 10111100
            -16 callsubr
            hintmask 01111100
            -82 callsubr
            hintmask 10111100
            -93 callgsubr
          </CharString>
          <CharString index="13">
            234 callsubr
            -372.270004272 hlineto
            -66.5599975586 -24.6799926758 -32.0399932861 -58.9600067139 -58.5800018311 -24.6799926758 32.0399932861 66.5599975586 vhcurveto
            372.270004272 131 callgsubr
            -377.63999939 vlineto
            -122.720001221 78.6100006104 -84.3600006104 162.039993286 162.279998779 78.7400054932 91.5899963379 115.490005493 vhcurveto
            endchar
          </CharString>
          <CharString index="14">
            -138.100006104 -79.8300018311 -120.119995117 -166.729995728 -182.869995117 80.1000061035 -95.6100006104 122.490005493 81.5299987793 49.8699951172 46.4600067139 83.6199951172 33.2200012207 hvcurveto
            7.13000488281 -36.0700073242 12.7400054932 -57.6300048828 42.2400054932 -28.5099945068 61.4400024414 -7.61999511719 rlinecurve
            50.6799926758 117.710006714 -30 6.02000427246 -17.2299957275 14.3800048828 -8.72999572754 33.2200012207 rlinecurve
            -26.6300048828 105.36000061 rlineto
            return
          </CharString>
          <CharString index="15">
            9.5 16.5 15 5.5 17.5 hhcurveto
            32.5 22.5 -15.5 -30 callsubr
            -43.5 -24 -21.5 -40.5 -34.5 -26.5 15.5 25 -20.5 hvcurveto
            -66.5 -60 rlineto
            -39.5 33.5 183 callsubr
            -29.5 73.5 hhcurveto
            return
          </CharString>
          <CharString index="16">
            -80 callgsubr
            43.5 return
          </CharString>
          <CharString index="17">
            rmoveto
            -162.869995117 hlineto
            -103.759994507 -430.740005493 -94.9199981689 430.740005493 rlineto
            -167.740005493 hlineto
            161.440002441 182 callsubr
            54.0399932861 hlineto
            -28.7599945068 -68.3000030518 -38.0899963379 -29.7899932861 -103.88999939 -13.0200042725 16.8500061035 -111.229995728 rcurveline
            166.550003052 9.14999389648 90.6399993896 78.2700042725 41.9799957275 134.410003662 rrcurveto
            endchar
          </CharString>
          <CharString index="18">
            -425.300003052 -58 callgsubr
            425.210006714 118.339996338 -261.100006104 176.229995728 213.320007324 115.220001221 -213.320007324 165.850006104 hlineto
            endchar
          </CharString>
          <CharString index="19">
            -164.779998779 -127.979995728 -106.729995728 -189.869995117 -194.380004883 90.0200042725 -106.470001221 190.119995117 77.3899993896 81.8099975586 23.1199951172 40.4700012207 61.8500061035 hvcurveto
            283.089996338 -236.490005493 vlineto
            14.9799957275 -107.11000061 rlineto
            70.4900054932 -111.440002441 hlineto
            -10.1499938965 -22.0399932861 -23.6799926758 -5.75 -27.7899932861 hhcurveto
            -76.3399963379 -37.9400024414 44.5599975586 143.440002441 127.11000061 56.4700012207 58.5099945068 83.1300048828 47.3899993896 31.8899993896 -14.6199951172 -29.7599945068 37.2599945068 hvcurveto
            81.6399993896 83.2700042725 rlineto
            return
          </CharString>
          <CharString index="20">
            44.5 return
          </CharString>
          <CharString index="21">
            -36 -100 callgsubr
            36 -35 return
          </CharString>
          <CharString index="22">
            222 433.339996338 rlineto
            -173.100006104 hlineto
            -128.149993896 -305.509994507 -127.529998779 305.509994507 rlineto
            -179.710006714 hlineto
            222 -434.339996338 rlineto
            -259.020004272 89 callgsubr
            vlineto
            endchar
          </CharString>
          <CharString index="23">
            rmoveto
            -183.63999939 -146.979995728 -128.36000061 -234.490005493 -237.380004883 105.38999939 -127.089996338 209.61000061 90.7700042725 90.0599975586 27.1100006104 45.7200012207 70.4700012207 hvcurveto
            342.960006714 -264.36000061 vlineto
            15.9799957275 -115.61000061 rlineto
            89.6199951172 -157.190002441 hlineto
            -15.5299987793 -28.4100036621 -31.0599975586 -7.13000488281 -34.1699981689 hhcurveto
            -96.0899963379 -47.6999969482 61.6999969482 181.809997559 171.869995117 71.6000061035 72.5099945068 97.1300048828 56.3999938965 37.8800048828 -17.6199951172 -37.1300048828 44.2700042725 hvcurveto
            85.8800048828 88.5099945068 rlineto
            50.2400054932 -57.1300048828 -75.0500030518 35.1000061035 -100.479995728 hhcurveto
            return
          </CharString>
          <CharString index="24">
            273 35 callgsubr
            112.589996338 -112.579986572 115.470001221 120.429992676 95.3999938965 -76.1199951172 90.2700042725 103.149993896 380 callgsubr
            -105.379989624 105.380004883 hstemhm
            26.3200073242 166.399993896 142.130004883 280 callsubr
            176.489990234 155.729995728 hintmask 0110011110000000
            828.130004883 407 callgsubr
            -93.6799926758 100.25 -146.100006104 -67.6799926758 -50.2299957275 -25.4199981689 -41.3800048828 -37.9600067139 vhcurveto
            41.0500030518 -31.7799987793 -49.8099975586 25.75 -80.3999938965 hhcurveto
            -60.25 -73.5599975586 -13.8699951172 -25.8699951172 -66.25 hvcurveto
            hintmask 1001101110000000
            240 callgsubr
            -19.2899932861 513 callsubr
            -21.5599975586 rlineto
            -54.5399932861 hlineto
            -165.050003052 -89.25 118 callgsubr
            -97.1100006104 66.8699951172 -68.7400054932 109.740005493 74.4600067139 65.8999938965 22.9400024414 67.8200073242 48.0200042725 hvcurveto
            hintmask 0110011110000000
            255 callgsubr
            42.2400054932 52.6300048828 hvcurveto
            -63 callgsubr
            hintmask 1001011110000000
            -419.190002441 -225.339996338 rmoveto
            -39.4499969482 -21.0399932861 24.2799987793 40.2100067139 54.5700073242 34.6799926758 23.5399932861 69.6000061035 hvcurveto
            40.1799926758 hlineto
            0.179992675781 -4.24000549316 0.75 -25.8999938965 3.63999938965 -24.7799987793 6.4700012207 -23.1999969482 rlinecurve
            -40.6199951172 -26.9299926758 -28.0700073242 -23.8600006104 -40.0099945068 hhcurveto
            endchar
          </CharString>
          <CharString index="25">
            24.6100006104 -51.5299987793 41.2100067139 -19.3300018311 62.5899963379 -5.27000427246 32.8300018311 103.229995728 rcurveline
            -25.1300048828 9.36999511719 -11.3899993896 15 41.0200042725 vvcurveto
            return
          </CharString>
          <CharString index="26">
            90.4900054932 -18.5099945068 -50.8899993896 48.2299957275 -88.75 hhcurveto
            20.4499969482 -115.339996338 rmoveto
            50.3000030518 26.4299926758 -37.6399993896 -123.380004883 22.6399993896 hvcurveto
            -139.369995117 -24.2799987793 -34.8300018311 -34.25 -42.3999938965 hhcurveto
            -43.7100067139 -32.8899993896 43.5700073242 119.559997559 117.570007324 32.7799987793 53.9400024414 45.9600067139 hvcurveto
            endchar
          </CharString>
          <CharString index="27">
            33 0 118.960006714 188.219985962 108.5 161.580001831 529 callsubr
            hstemhm
            -40 callsubr
            54 callsubr
            165.669998169 166.729995728 -140.36000061 169.740005493 hintmask 11110100
            433.880004883 367.11000061 rmoveto
            hintmask 11111000
            63.8899993896 15.25 63.2400054932 45.1499938965 88.1100006104 vvcurveto
            129.960006714 -114.320007324 47.7799987793 -185.559997559 vhcurveto
            -196.630004883 -58 callgsubr
            223.630004883 hlineto
            hintmask 11110100
            174.320007324 127.940002441 44.3899993896 157.830001831 112.020004272 -79 37.6300048828 -77.5099945068 15.2400054932 hvcurveto
            -205.259994507 210.149993896 rmoveto
            48.1100006104 hlineto
            hintmask 11111000
            79.5899963379 37.9600067139 -19.75 -57.6100006104 -58.0500030518 -36.3399963379 -26.1699981689 -68.2899932861 hvcurveto
            -61.0399932861 hlineto
            -296.720001221 vmoveto
            188.220001221 72.5299987793 vlineto
            hintmask 11110100
            71.1699981689 48.3399963379 -26.0200042725 -70.2200012207 -76.3399963379 -54.3200073242 -15.6399993896 -76.9600067139 hvcurveto
            endchar
          </CharString>
          <CharString index="28">
            -96 callsubr
            rlineto
            return
          </CharString>
          <CharString index="29">
            rmoveto
            -86 -53 -60 -71 -70.5 53 -61 86 85.5 53.5 61 70.5 71 -53.5 60 -85.5 hvcurveto
            -81 vmoveto
            26.5 18.5 -16.5 -33.5 -33 -18.5 -16.5 -26.5 -27 -18 16.5 33 33.5 18 16.5 27 hvcurveto
            return
          </CharString>
          <CharString index="30">
            -10 callsubr
            45 50 67 26 hvcurveto
            -79 38.5 rlineto
            -28.5 -17 -13 -15 -22.5 hhcurveto
            return
          </CharString>
          <CharString index="31">
            -79.6399993896 hlineto
            -50.8800048828 -7.5299987793 16.5099945068 15.2799987793 12.3399963379 6.4700012207 11.4600067139 10.9199981689 6.52000427246 hvcurveto
            -4.4700012207 19.2899932861 19.2200012207 -1.16999816895 22.1499938965 hhcurveto
            138.460006714 84.9600067139 75 102.130004883 69.1000061035 -32.8699951172 39.6399993896 -66.9799957275 28.6199951172 hvcurveto
            66.2200012207 49.3800048828 6.36000061035 14.6300048828 37.1499938965 hvcurveto
            return
          </CharString>
          <CharString index="32">
            -178.410003662 -50 callsubr
            rlineto
            -188.100006104 hlineto
            -179.410003662 151 callgsubr
            163.729995728 hlineto
            return
          </CharString>
          <CharString index="33">
            vvcurveto
            -72 61.5 -90 callgsubr
            85 27 22 3 4.5 21 vhcurveto
            11 98 rlineto
            -5 -23 -18.5 -2.5 -19.5 hhcurveto
            -35.5 -17.5 15.5 30 return
          </CharString>
          <CharString index="34">
            -5 callsubr
            -90 callgsubr
            -33 -37 -145 -131 hvcurveto
            -82.5 297.5 vlineto
            11.5 231 callsubr
            rlineto
            -177 hlineto
            137 110 31 -23 callsubr
            60 vvcurveto
            66.5 -53.5 59.5 -105.5 vhcurveto
            return
          </CharString>
          <CharString index="35">
            -88.6499938965 128.800003052 rmoveto
            391 callgsubr
            -16 -24 -20.5399932861 -5.72999572754 -19.0099945068 -27.8099975586 -18.8200073242 hvcurveto
            -15.4600067139 6.36000061035 rlineto
            -31.5 11.5 -12 18 207 callsubr
            vvcurveto
            28.5 18 12.5 29 vhcurveto
            return
          </CharString>
          <CharString index="36">
            rmoveto
            -107 50.5 -88.5 -196.5 83 -34 rlineto
            287 177 rmoveto
            -106 53.5 -97 -196.5 81.5 -38 rlineto
            return
          </CharString>
          <CharString index="37">
            rmoveto
            -173.789993286 -101.130004883 -121.210006714 -147.580001831 -91.8300018311 41.0899963379 -72.1199951172 72.5099945068 -36.3699951172 hvcurveto
            -2.86999511719 vlineto
            hintmask 10101010
            -94.6000061035 hlineto
            hintmask 01101010
            -110.119995117 227.11000061 102.509994507 vlineto
            hintmask 10110010
            -71.8800048828 33.8500061035 -10.6100006104 58.6300048828 118.320007324 vvcurveto
            101.279998779 37.1000061035 54.6600036621 74.2100067139 74.3399963379 36.5800018311 -54.6600036621 -100.899993896 vhcurveto
            hintmask 10110100
            -117.419998169 -9.96000671387 -61.3899993896 -71.5299987793 -32.3600006104 vhcurveto
            -102.509994507 227.119995117 110.11000061 -96.8699951172 2.86999511719 vlineto
            hintmask 10110010
            75.6600036621 37.3999938965 39.2100067139 71.9799957275 95.0500030518 vvcurveto
            144.36000061 -100.25 120.320007324 -174.300003052 vhcurveto
            endchar
          </CharString>
          <CharString index="38">
            133.5 -84.5 -10 callsubr
            65 -141.5 218 callgsubr
            rlineto
            -96.5 hlineto
            -141.5 -129.5 return
          </CharString>
          <CharString index="39">
            rmoveto
            -165.740005493 hlineto
            -127.020004272 -417.720001221 -144.529998779 417.720001221 rlineto
            -169.36000061 hlineto
            212.910003662 -509.960006714 rlineto
            51.8099975586 hlineto
            -31.8699951172 -58.8500061035 -41.1199951172 -20.9100036621 -87.0200042725 -10.5299987793 21.4700012207 -110.089996338 rcurveline
            156.509994507 14.0200042725 77.7899932861 47.2400054932 61.1000061035 162.270004272 rrcurveto
            endchar
          </CharString>
          <CharString index="40">
            107 -67 callgsubr
            120.350006104 -96.3100128174 -21 603.949996948 120.320007324 -2.94999694824 -20 hstemhm
            33.2100067139 171.36000061 281.619995117 171.36000061 hintmask 10101100
            241 785 93 callgsubr
            353.770004272 -70.1199951172 rmoveto
            -123.199996948 32.8300018311 rlineto
            hintmask 10011100
            -37.1699981689 -120.330001831 rlineto
            hintmask 01101100
            1.96000671387 -15.7299957275 -16.3500061035 0.990005493164 -16.9400024414 hhcurveto
            223 callsubr
            -137.220001221 -226.380004883 -153.199996948 51.5200042725 -109.970001221 91.5899963379 -56.6999969482 hvcurveto
            252 callgsubr
            -128.509994507 123.210006714 -32.8300018311 36.3000030518 120.539993286 226 callsubr
            226.75 153.75 -51.5500030518 109.800003052 -91.9199981689 56.3699951172 hvcurveto
            -168.699996948 -77.0299987793 rmoveto
            10.5599975586 9.9700012207 -0.580001831055 -1.33000183105 9.38999938965 hvcurveto
            -132.410003662 -440.11000061 rlineto
            -25.1300048828 35.7299957275 -13.1900024414 61.4400024414 101.589996338 vvcurveto
            175.339996338 48.8500061035 67.9299926758 91.9600067139 vhcurveto
            424 callsubr
            -10.5099945068 -9.9700012207 0.610000610352 1.38999938965 -9.41000366211 hvcurveto
            132.419998169 441.300003052 rlineto
            25.4100036621 -35.4799957275 12.8699951172 -61.5500030518 -102.520004272 vvcurveto
            396 callgsubr
            vhcurveto
            endchar
          </CharString>
          <CharString index="41">
            38 hlineto
            44 22 -15 -37 -34 -26 -16.5 -35 -33.5 -26 11.5 28.5 -26.5 hvcurveto
            -65 -62 rlineto
            -41 35.5 51.5 -26.5 72 hhcurveto
            115.5 60.5 61 68 return
          </CharString>
          <CharString index="42">
            -35 -161.229995728 267.570007324 -115.140014648 115.13999939 -94.1399993896 -21 27.0700073242 -21 573.729995728 259.220001221 hstemhm
            37.0599975586 161 27.5800018311 410 callsubr
            21.4900054932 163.25 hintmask 00000000
            hintmask 00011111
            524.619995117 199.699996948 rmoveto
            121.770004272 -72.3200073242 52.5899963379 -125.059997559 39.8500061035 vhcurveto
            -103.809997559 32.6399993896 -25.3699951172 17.0399932861 42.3000030518 vvcurveto
            42.2100067139 34.9400024414 22.8999938965 54.5500030518 54.1300048828 46.1300048828 -17.6199951172 -38.0200042725 44.75 vhcurveto
            73.5500030518 85.3899993896 rlineto
            hintmask 00011010
            -44.6300048828 42.9799957275 -52.6699981689 27.7599945068 -68.9199981689 10.2700042725 rrcurveto
            148.460006714 -114.25 -147.559997559 vlineto
            hintmask 01001111
            -111.059997559 -16.1699981689 -77.5200042725 -70.1900024414 -101.880004883 vvcurveto
            -98.6399993896 54.3000030518 -61.2100067139 148.679992676 -46.2299957275 vhcurveto
            96.5599975586 -30.0200042725 24.7799987793 -21.5299987793 -48.8099975586 vvcurveto
            -51.3600006104 -40.1000061035 -30.2799987793 -65.3000030518 -65.7700042725 -53.7599945068 24.1300048828 42.1300048828 -46.8699951172 vhcurveto
            -80.1499938965 -87.6399993896 rlineto
            hintmask 00101010
            49 -48.1100006104 70.6999969482 -38.1600036621 96.5099945068 -7.49000549316 rrcurveto
            hintmask 10001010
            -152.429992676 410 callsubr
            vlineto
            hintmask 00011010
            301 callsubr
            vlineto
            hintmask 00011111
            117.130004883 23.3800048828 67.6100006104 76.7899932861 102.25 vvcurveto
            endchar
          </CharString>
          <CharString index="43">
            157 callgsubr
            hintmask 10011100
            -110.149993896 13.4900054932 -91.3200073242 8.85000610352 -56.4700012207 vhcurveto
            -205.169998169 538.679992676 rlineto
            -204.320007324 -58 callgsubr
            200 callsubr
            337 callgsubr
            hintmask 01101100
            128.619995117 -13.6000061035 91.4700012207 -8.11999511719 63.2299957275 vhcurveto
            200.300003052 -537.059997559 rlineto
            endchar
          </CharString>
          <CharString index="44">
            209 126 callgsubr
            554.009994507 139.339996338 -138.959991455 138.960006714 0 -20 hstemhm
            32.7299957275 720.630004883 hintmask 01001100
            753.36000061 hmoveto
            -52.6399993896 693.350006104 rlineto
            -207.460006714 hlineto
            -96.8999938965 -469.869995117 -104.529998779 469.869995117 rlineto
            -206.460006714 hlineto
            hintmask 10010100
            -52.6399993896 81 callgsubr
            160.36000061 hlineto
            11.7899932861 269.130004883 4.27000427246 96.6399993896 -0.610000610352 86.4600067139 -6.85000610352 102.169998169 rlinecurve
            114.039993286 -481.380004883 rlineto
            155 hlineto
            hintmask 01100100
            107.289993286 481 -5.22999572754 -86.2599945068 2.63999938965 -99.8099975586 4.63999938965 -96.7899932861 rlinecurve
            12.1699981689 -271.149993896 rlineto
            endchar
          </CharString>
          <CharString index="45">
            -41 callgsubr
            hstem
            26 callgsubr
            351 callgsubr
            90 callsubr
            63.9600067139 31.8099975586 -49.0599975586 -117.699996948 -114.960006714 -31.8099975586 -50.9199981689 149 callgsubr
            149 callgsubr
            -31.8099975586 49.0500030518 117.699996948 114.960006714 32.1900024414 533 callsubr
            hvcurveto
            endchar
          </CharString>
          <CharString index="46">
            -60.5 -44 -54 -64 -25 hvcurveto
            79 -38.5 rlineto
            29 16 13 15 24 hhcurveto
            return
          </CharString>
          <CharString index="47">
            110.660003662 367 callgsubr
            -151.509994507 hlineto
            -64.25 -413.190002441 -72.2200012207 413.190002441 rlineto
            -154.059997559 hlineto
            -82.8300018311 -413.190002441 -55.7700042725 413.190002441 rlineto
            -159.25 hlineto
            113.039993286 182 callsubr
            186.759994507 hlineto
            return
          </CharString>
          <CharString index="48">
            363.419998169 vlineto
            43.5399932861 27.5299987793 29.4199981689 24.5500030518 156 callsubr
            508 callgsubr
            -360.63999939 158 387.960006714 vlineto
            101.25 -55.3800048828 130 callgsubr
            return
          </CharString>
          <CharString index="49">
            -285 vmoveto
            -37 -23.5 19 30 25.7400054932 11.4199981689 22.9700012207 24.2299957275 14.2899932861 hvcurveto
            25.8500061035 -8.99000549316 rlineto
            42 -14.5 16.5 -13.5 -29.5 vvcurveto
            -25 -18.5 -20.5 -41 vhcurveto
            endchar
          </CharString>
          <CharString index="50">
            rmoveto
            -65.5399932861 -50.8399963379 -27.4900054932 -52.1100006104 -44.1100006104 hvcurveto
            hintmask 01101110
            -6.2200012207 35.8699951172 -7.83000183105 22.6499938965 -9.86000061035 17.3399963379 -145.63999939 -19.4700012207 rcurveline
            13.3800048828 -40.2599945068 8.25999450684 -45.8899993896 -57.0700073242 vvcurveto
            -381.910003662 158 vlineto
            hintmask 01110110
            367.059997559 vlineto
            41.3500061035 26.8000030518 28.7100067139 23.1000061035 34.2899932861 110 callgsubr
            333 callgsubr
            -565.759994507 vlineto
            hintmask 10101110
            158 235 callgsubr
            609.679992676 vlineto
            hintmask 01110110
            101.240005493 171 callsubr
          </CharString>
          <CharString index="51">
            -58 0 118.339996338 176.220001221 115.220001221 165.86000061 117.710006714 return
          </CharString>
          <CharString index="52">
            59 -61.5 rlineto
            22.5 25 187 callgsubr
            12.5 31.5 hhcurveto
            32 21 -14 -27 -28 -19.5 -16 -37.5 hvcurveto
            -26 hlineto
            -13.5 -79.5 rlineto
            return
          </CharString>
          <CharString index="53">
            rmoveto
            -97.5 -74.5 -60 -88 -88.5 58.5 -48.5 68.5 40 26.1600036621 12.5500030518 23.0800018311 24.7899932861 hvcurveto
            -22.1199951172 -68.5299987793 -52.1499938965 -27.4799957275 -112.179992676 -23.1300048828 24 -82 rcurveline
            199 33.5 91 83 171 vvcurveto
            316 callgsubr
            -58.5 68.5 -115 vhcurveto
            -5.5 -210.5 rmoveto
            -25 -22 13 55 258 callsubr
            21 20 31.5 39.6699981689 11.5800018311 -25.9600067139 -74.6999969482 -0.410003662109 hvcurveto
            -20.5700073242 -15.6399993896 -20.9299926758 -9.27000427246 -19.7700042725 hhcurveto
            endchar
          </CharString>
          <CharString index="54">
            6 21 -21 149.339996338 118.710006714 305.830001831 119.479995728 0 -20 return
          </CharString>
          <CharString index="55">
            rmoveto
            88 callsubr
            -25 callsubr
            -305.5 hlineto
            return
          </CharString>
          <CharString index="56">
            -50 callsubr
            -158.75 -211.949996948 -161.789993286 211.949996948 -157.380004883 75 callsubr
            234.710006714 161.789993286 -234.710006714 vlineto
            endchar
          </CharString>
          <CharString index="57">
            568.36000061 return
          </CharString>
          <CharString index="58">
            174 callsubr
            -24 -22 -18.5 -8 -28 -25 -19 6.5 10.5 -20 hvcurveto
            -36 -73 rlineto
            -17 25 40.5 -13 -43 callgsubr
            hhcurveto
            91 58 47 68 hvcurveto
            return
          </CharString>
          <CharString index="59">
            -38.6499938965 -23.9299926758 -25.25 -38.5099945068 -39.3399963379 vvcurveto
            -56.7299957275 46.9799957275 -47.6300048828 116.419998169 vhcurveto
            77.3899993896 hlineto
            52.3000030518 23.1900024414 -21.8800048828 -30.6999969482 -33.6999969482 -21.9400024414 -25.8899993896 -92.8300018311 hvcurveto
            return
          </CharString>
          <CharString index="60">
            -56.5 65 -133.5 -91.5 -132.5 91.5 -57 -65 return
          </CharString>
          <CharString index="61">
            -39 21 -21 181.830001831 111.089996338 165.589996338 416 callgsubr
            -20 callgsubr
            95 callgsubr
            140.510009766 161.130004883 463 callsubr
            465 callsubr
            -57 callgsubr
            95 callgsubr
            181.830001831 62.7899932861 vlineto
            139.470001221 99.3800048828 63.5800018311 133.490005493 126.850006104 -96.4700012207 62.6100006104 -158.449996948 hvcurveto
            -46.7200012207 -275.440002441 rmoveto
            165.589996338 44.4700012207 vlineto
            65.0800018311 30.9600067139 -28.1300048828 -51.2299957275 -61.3600006104 -34.2100067139 -24.8699951172 -57.8500061035 hvcurveto
            endchar
          </CharString>
          <CharString index="62">
            837.5 rmoveto
            -60.5 119 -219.5 -125 40 -80 rlineto
            return
          </CharString>
          <CharString index="63">
            -96.0800018311 -20.1499938965 19.2899932861 46.9199981689 hvcurveto
            -141.529998779 hlineto
            -105.130004883 52.7599945068 -66.0700073242 201.259994507 181.679992676 95.8300018311 66.7100067139 108.850006104 89.6100006104 -78.8500061035 64.4900054932 -124.190002441 vhcurveto
            return
          </CharString>
          <CharString index="64">
            53 callsubr
            hstemhm
            64.5099945068 186 callsubr
            193.360015869 186 callsubr
            hintmask 01011100
            491 callsubr
            hmoveto
            101 callgsubr
            hintmask 10011100
            -98.9100036621 12.1100006104 -70.9600067139 12.1000061035 -63.5800018311 vhcurveto
            -162.63999939 431.410003662 rlineto
            -194.720001221 83 callgsubr
            hintmask 01101100
            105.630004883 -13.6000061035 74.9600067139 -10.6100006104 206 callsubr
          </CharString>
          <CharString index="65">
            36.5 return
          </CharString>
          <CharString index="66">
            rmoveto
            236.5 94 -61.5 118.5 -218.5 -132.5 rlineto
            return
          </CharString>
          <CharString index="67">
            64.5 return
          </CharString>
          <CharString index="68">
            rmoveto
            118.220001221 -207.850006104 rlineto
            176.25 hlineto
            -150.410003662 236.820007324 rlineto
            75.4199981689 38.2700042725 35.3899993896 42.4299926758 72.8899993896 vvcurveto
            122.320007324 -84.2299957275 55.6300048828 -167.559997559 vhcurveto
            -206.589996338 75 callsubr
            207.850006104 hlineto
            106.600006104 vmoveto
            145.679992676 45.7100067139 vlineto
            62.4900054932 32.0399932861 -21.7700042725 -47.9499969482 -53.6999969482 -29.1900024414 -22.2599945068 -56.9600067139 hvcurveto
            endchar
          </CharString>
          <CharString index="69">
            -97.7899932861 51.6999969482 -52.4600067139 88.7899932861 36.9600067139 37.8300018311 7.25 10.75 26.8699951172 vhcurveto
            return
          </CharString>
          <CharString index="70">
            13 211 callsubr
            188.130004883 116.089996338 333.270004272 393 callsubr
            -16.9800109863 493 callgsubr
            176.259994507 351 callgsubr
            hintmask 00000000
            hintmask 01110110
            359.410003662 189 callsubr
            -49.5399932861 -57.3399963379 -21.4700012207 -55.0099945068 -43.5599975586 hvcurveto
            hintmask 10101110
            -7.58000183105 59.5 rlineto
            -139.38999939 -753.080001831 hlineto
            hintmask 01101110
            158 16.6100006104 rlineto
            243.850006104 vlineto
            -37.6600036621 32.6000061035 44 -18.0599975586 52.6799926758 hhcurveto
            131.020004272 79.7100067139 120.36000061 163.729995728 hvcurveto
            hintmask 01110110
            172.229995728 -60.6000061035 109 -140 vhcurveto
            -58.9100036621 -449.229995728 rmoveto
            -32.8899993896 -25.5599975586 14.8600006104 32.5 -22.0500030518 hvcurveto
            223.619995117 vlineto
            38.8600006104 23.2799987793 31.2899932861 23.4299926758 34.4499969482 hhcurveto
            54.7100067139 32.5299987793 -35.1199951172 -132.020004272 -119.320007324 -36.6600036621 -46.8099975586 -59.0899963379 hvcurveto
            endchar
          </CharString>
          <CharString index="71">
            -30 536 callsubr
            120.429992676 95.3999938965 128.640014648 105.380004883 31 callsubr
            525.369995117 407 callgsubr
            -93.0500030518 100.25 -151.960006714 -161.529998779 -86.7400054932 -126.339996338 -159.020004272 -165.75 89.7400054932 -114.210006714 177.509994507 345 callsubr
            vhcurveto
            -63 callgsubr
            endchar
          </CharString>
          <CharString index="72">
            rmoveto
            124.320007324 -463.300003052 -127.320007324 276.869995117 vlineto
            -307.88999939 -443.339996338 rlineto
            -122.699996948 483.320007324 vlineto
            16.6100006104 130.809997559 rlineto
            -306.759994507 hlineto
            endchar
          </CharString>
          <CharString index="73">
            rmoveto
            -201.630004883 hlineto
            -24.4600067139 123.339996338 rlineto
            187.199996948 107.729995728 -208.559997559 hlineto
            -23.0500030518 116.210006714 rlineto
            223 hlineto
            16.2299957275 104 callsubr
            -470.130004883 hlineto
            -235.130004883 151 callgsubr
            170.089996338 hlineto
            hintmask 01111000
            39.5800018311 114.589996338 rlineto
            175.13999939 hlineto
            hintmask 10111000
            19.3200073242 -114.589996338 rlineto
            332.399993896 hlineto
            hintmask 01111000
            -370.479995728 225.809997559 rmoveto
            -117.949996948 hlineto
            79.2599945068 229.460006714 rlineto
            endchar
          </CharString>
          <CharString index="74">
            rmoveto
            -230.729995728 hlineto
            -35.9499969482 174.600006104 rlineto
            220.419998169 315 callsubr
            -244.13999939 hlineto
            -34.4799957275 167.470001221 rlineto
            270.38999939 hlineto
            24 callgsubr
            -526.25 hlineto
            -272.130004883 81 callgsubr
            176.080001831 hlineto
            hintmask 11111000
            49.9700012207 149.339996338 rlineto
            215.5 hlineto
            25.9600067139 -149.339996338 rlineto
            368.130004883 hlineto
            -414.740005493 268.059997559 rmoveto
            -155.130004883 hlineto
            102.080001831 305.089996338 rlineto
            endchar
          </CharString>
          <CharString index="75">
            110.220001221 return
          </CharString>
          <CharString index="76">
            735.5 713.5 rmoveto
            -91 45 -411.5 -799 92 -45 rlineto
            return
          </CharString>
          <CharString index="77">
            -46.5 return
          </CharString>
          <CharString index="78">
            -34.5 35 return
          </CharString>
          <CharString index="79">
            -24 21 -21 143.080001831 104.490005493 201.959991455 104.869995117 138.960006714 -20 hstem
            16.6999969482 526.600006104 vstem
            474.369995117 449.529998779 rmoveto
            68.9299926758 104.869995117 -55.2599945068 hlineto
            18.1100006104 138.960006714 rlineto
            -130.919998169 hlineto
            -18.1199951172 -138.960006714 rlineto
            -100.449996948 hlineto
            18.1199951172 138.960006714 rlineto
            -130.929992676 hlineto
            -18.1100006104 -138.960006714 rlineto
            -72.0399932861 -104.869995117 58.3699951172 hlineto
            -26.3300018311 -201.960006714 rlineto
            -69.0399932861 -104.490005493 55.4199981689 hlineto
            -18.6499938965 -143.080001831 rlineto
            130.929992676 hlineto
            18.6499938965 143.080001831 rlineto
            100.449996948 hlineto
            -18.6499938965 -143.080001831 rlineto
            130.919998169 hlineto
            18.6499938965 143.080001831 rlineto
            71.8800048828 104.490005493 -58.2599945068 hlineto
            -104.600006104 201.960006714 rmoveto
            -26.3200073242 -201.960006714 rlineto
            -100.449996948 hlineto
            26.3200073242 201.960006714 rlineto
            endchar
          </CharString>
          <CharString index="80">
            -59 callgsubr
            -164.490005493 162 callgsubr
            endchar
          </CharString>
          <CharString index="81">
            -51.9900054932 -20.5399932861 -30.4600067139 -33.6499938965 -47.5800018311 vvcurveto
            -67 62.5 -58 113 76 callgsubr
            63 60.5 66 45.4299926758 -25.4499969482 37.1000061035 -62.3999938965 29.1699981689 vhcurveto
            return
          </CharString>
          <CharString index="82">
            109.5 return
          </CharString>
          <CharString index="83">
            rmoveto
            -296.850006104 -30 callgsubr
            -59 callgsubr
            122 callgsubr
            -268.699996948 -208.429992676 268.699996948 -164.119995117 51 callsubr
            296.850006104 vlineto
            endchar
          </CharString>
          <CharString index="84">
            45.5 return
          </CharString>
          <CharString index="85">
            0 -67 callgsubr
            413 callgsubr
            126.169998169 473 callgsubr
            117.800003052 519 callgsubr
            161.899993896 196.810012817 161.100006104 90 callsubr
            57.7299957275 31.6499938965 -35.2899932861 -82.5099945068 8.2799987793 hvcurveto
            -196.050003052 hlineto
            81.1900024414 8.38999938965 31.9700012207 36.6000061035 58.0299987793 hhcurveto
            -0.380004882812 -332.63999939 rmoveto
            -59.9799957275 -31.8399963379 37.6699981689 208 callsubr
            -6.9700012207 hvcurveto
            197.589996338 hlineto
            -87.0500030518 -6.94999694824 -31.8500061035 -39.1199951172 -60 hhcurveto
            endchar
          </CharString>
          <CharString index="86">
            -117.130004883 -137.229995728 -226.369995117 return
          </CharString>
          <CharString index="87">
            107 -67 callgsubr
            120.339996338 201.429992676 415 callgsubr
            192.790008545 120.339996338 hstem
            156 callgsubr
            168.770004272 287.36000061 168.210006714 97 callsubr
            83.6300048828 50.4299926758 -54.8099975586 -137.979995728 9.39999389648 hvcurveto
            -286.86000061 hlineto
            138.050003052 9.61000061035 51.2299957275 54.7400054932 82.5599975586 hhcurveto
            424 callsubr
            -83.1999969482 -52.4900054932 57.0800018311 144.350006104 -8.22999572754 hvcurveto
            287.880004883 hlineto
            -144.419998169 -7.91999816895 -50.3800048828 -57.0099945068 -85.6600036621 hhcurveto
            endchar
          </CharString>
          <CharString index="88">
            -147.789993286 -274.300003052 rlineto
            -58.9600067139 274.300003052 -150.149993896 -274.300003052 -58.9600067139 hlineto
            -145.789993286 274.300003052 rlineto
            -161.770004272 hlineto
            172.660003662 -314.289993286 -191.039993286 -379.070007324 rlineto
            174.729995728 hlineto
            147.100006104 303.070007324 rlineto
            63.0700073242 -303.070007324 150.149993896 303.070007324 61.4600067139 hlineto
            145.470001221 -303.070007324 rlineto
            177.979995728 hlineto
            endchar
          </CharString>
          <CharString index="89">
            -32.9299926758 -17 18.1499938965 51.1300048828 hvcurveto
            243.63999939 105.660003662 vlineto
            16.2299957275 168 callgsubr
            rlineto
            -121.88999939 133.11000061 hlineto
            -158 -18.4700012207 rlineto
            -114.63999939 -74.5599975586 -110.229995728 74.5599975586 -246.38999939 vlineto
            -124.779998779 57.3600006104 -66.3200073242 117.020004272 -0.619995117188 vhcurveto
            48.1199951172 55.4299926758 13.8699951172 28.3600006104 40.6100006104 hvcurveto
            return
          </CharString>
          <CharString index="90">
            34.5 return
          </CharString>
          <CharString index="91">
            -73 callgsubr
            vhcurveto
            return
          </CharString>
          <CharString index="92">
            -36.5 return
          </CharString>
          <CharString index="93">
            -70 85 callsubr
            hstem
            -4.35000610352 523.050003052 vstem
            348.070007324 hmoveto
            170.630004883 hlineto
            -172.039993286 306.869995117 159.259994507 261.490005493 rlineto
            -166.869995117 hlineto
            -83.6199951172 -168.25 -77.2700042725 168.25 rlineto
            -169.619995117 hlineto
            154.279998779 -266.119995117 -167.169998169 -302.240005493 rlineto
            166.869995117 hlineto
            91.6000061035 202.210006714 rlineto
            endchar
          </CharString>
          <CharString index="94">
            -26 callgsubr
            50 callsubr
            return
          </CharString>
          <CharString index="95">
            rmoveto
            -101.710006714 -77.4900054932 -30.25 -58.4900054932 -67.7400054932 hvcurveto
            76.3999938965 -91 rlineto
            31.3999938965 39.0399932861 48.0399932861 28 68.8800048828 hhcurveto
            88.9700012207 52.2599945068 -55.3300018311 -130 4.49000549316 hvcurveto
            -411.210006714 hlineto
            -3.25 -19.8699951172 -2.24000549316 -24.3600006104 -22.3399963379 vvcurveto
            -217.149993896 89.7700042725 -137.940002441 199.419998169 178.539993286 115.509994507 123.710006714 245.529998779 237.740005493 -110.490005493 120.339996338 -187.190002441 vhcurveto
            2.11999511719 -607.740005493 rmoveto
            -77.8500061035 -50.5700073242 51.3200073242 138.020004272 -1.13000488281 hvcurveto
            258.830001831 hlineto
            -139.059997559 -4.85000610352 -46.4100036621 -50.2799987793 -78.0200042725 hhcurveto
            endchar
          </CharString>
          <CharString index="96">
            rmoveto
            111.710006714 -402.070007324 -119.089996338 220.490005493 vlineto
            -241.630004883 -300.300003052 rlineto
            -111.960006714 413.960006714 vlineto
            14.7400054932 119.960006714 rlineto
            -245.630004883 hlineto
            endchar
          </CharString>
          <CharString index="97">
            56.5 return
          </CharString>
          <CharString index="98">
            -24 0 141.699996948 -120.709991455 -21 760.689987183 119.960006714 hstemhm
            12.7299957275 749.720001221 hintmask 01110000
            762.449996948 760.679992676 rmoveto
            119.960006714 -306.279998779 vlineto
            hintmask 10110000
            -190.699996948 -738.949996948 -106.979995728 363.470001221 -145.759994507 -43.8099975586 168.25 -461.36000061 rlineto
            179.960006714 hlineto
            211.899993896 760.679992676 rlineto
            endchar
          </CharString>
          <CharString index="99">
            831.5 rmoveto
            -220 125 -60 -119 239.5 -86 rlineto
            return
          </CharString>
          <CharString index="100">
            rmoveto
            -112.5 -61.5 -79 -142 -141.5 61.5 -80.5 112.5 112 61.5 217 callgsubr
            141.5 417 callsubr
            -61.5 78.5 -112 hvcurveto
            -86.5 vmoveto
            -42 callsubr
            15 -24.5 -110 -109.5 -15 -25.5 -15 callsubr
            -37 -14 29 106 105.5 14 29 37 hvcurveto
            endchar
          </CharString>
          <CharString index="101">
            rmoveto
            -97.6999969482 -61.6199951172 -29.1199951172 -49.3600006104 -58.1199951172 hvcurveto
            78.2700042725 -92 rlineto
            34.1300048828 41.5299987793 32.2599945068 16.6300048828 52.4199981689 hhcurveto
            77.4499969482 45.5200042725 -50.6000061035 -127.339996338 7.78999328613 hvcurveto
            -233.630004883 -115.36000061 233.660003662 hlineto
            -131.490005493 -4.39999389648 -46.9499969482 -59.8600006104 -82.8200073242 hhcurveto
            -53.5399932861 -34.2700042725 18.0200042725 30.7599945068 -37.75 hvcurveto
            -73.5299987793 -91.5099945068 rlineto
            -48.1000061035 50.4700012207 63.9799957275 -32.1300048828 96.3600006104 hhcurveto
            178.830001831 110.960006714 127.490005493 237.61000061 240.300003052 -107.509994507 121.919998169 -177.660003662 hvcurveto
            endchar
          </CharString>
          <CharString index="102">
            rmoveto
            -69.5 -53.5 -32 -51 callgsubr
            -35 hvcurveto
            67.5 -53 rlineto
            29 24.5 22.5 13 30.5 hhcurveto
            30.5 19.5 -17 338 callgsubr
            return
          </CharString>
          <CharString index="103">
            -158 -232.559997559 hlineto
            -19.9799957275 -21.9700012207 -35.1600036621 -13.6799926758 -31.4199981689 hhcurveto
            -34.5800018311 -19.5299987793 16.4100036621 51.8099975586 hvcurveto
            198 -158 -218.339996338 vlineto
            -100.490005493 47.5099945068 -64.2200012207 104.11000061 58.1499938965 53.3999938965 19.7899932861 30.2400054932 37.4900054932 vhcurveto
            -198.330001831 return
          </CharString>
          <CharString index="104">
            -148 634.830001831 112.330001831 -67.4600067139 112.350006104 -44.8899993896 -20 24.8000030518 -20 hstemhm
            29.9900054932 376.350006104 hintmask 00000000
            hintmask 10001000
            279.169998169 634.830001831 rmoveto
            hintmask 00011000
            56.3200073242 44.8500061035 50.1699981689 66.9600067139 26 hvcurveto
            hintmask 00101000
            -79.0399932861 38.5800018311 rlineto
            -28.75 -16.7599945068 -13.1300048828 281 callsubr
            -22.4900054932 -33.2599945068 -20.2700042725 44.8899993896 -62.0899963379 hhcurveto
            hintmask 01001000
            -60.3399963379 -44.1000061035 -53.9499969482 -63.9400024414 -24.8699951172 hvcurveto
            79.0399932861 -38.5899963379 rlineto
            28.7599945068 16 12.7599945068 15.3699951172 24.2400054932 hhcurveto
            hintmask 10001000
            32.8899993896 20.2599945068 -44.8800048828 63.9799957275 hhcurveto
            endchar
          </CharString>
          <CharString index="105">
            -174.289993286 -380.149993896 rlineto
            10.7200012207 39.1499938965 10.4900054932 72.6799926758 76.3899993896 vvcurveto
            191.929992676 -150.779998779 45 callsubr
            161.440002441 vlineto
            return
          </CharString>
          <CharString index="106">
            33 20 -90 callgsubr
            64 hhcurveto
            return
          </CharString>
          <CharString index="107">
            234 callsubr
            -473.779998779 hlineto
            -64.2799987793 -10.3899993896 -40.8500061035 -76.7599945068 -28.1300048828 vhcurveto
            42.0599975586 -110.830001831 rlineto
            102.979995728 32.1100006104 99.4900054932 52.8500061035 154.270004272 vvcurveto
            endchar
          </CharString>
          <CharString index="108">
            -15.8300018311 -19.5700073242 -25.4400024414 -10.0599975586 -38.8999938965 hhcurveto
            -55.0500030518 -23.6799926758 27.6399993896 65.2899932861 hvcurveto
            194.300003052 -154.88999939 -194.949996948 vlineto
            -126.679992676 68.3800048828 -78.5800018311 120.449996948 52.3800048828 38.9499969482 14.1399993896 27.7200012207 37.3699951172 vhcurveto
            return
          </CharString>
          <CharString index="109">
            -63 369.169998169 92.5099945068 157.640014648 91.0200042725 hstem
            39.4299926758 108.759994507 139.130020142 108.75 vstem
            217.75 369.169998169 rmoveto
            88.3600006104 89.9600067139 64.0899963379 107.36000061 107.36000061 -89.9600067139 62.3600006104 -88.3600006104 -87.9799957275 -90.3399963379 -61.9799957275 -107.36000061 -107.36000061 90.3399963379 -64.4700012207 87.9799957275 hvcurveto
            92.5099945068 vmoveto
            -41.8800048828 -27.6799926758 31 48.3200073242 48.3200073242 27.6799926758 30 41.8800048828 42.2700042725 27.3000030518 -30.75 -47.9499969482 -47.9400024414 -27.3000030518 -31 -42.2700042725 hvcurveto
            endchar
          </CharString>
          <CharString index="110">
            -202.929992676 -529.960006714 rlineto
            11.3600006104 67.0899963379 12.2299957275 72.6100006104 125.869995117 vvcurveto
            264.38999939 -161 -58 callgsubr
            197.960006714 vlineto
            return
          </CharString>
          <CharString index="111">
            rmoveto
            16.6100006104 104 callsubr
            -368.830001831 -57 callgsubr
            95 callgsubr
            216.229995728 169.830001831 110.470001221 -169.830001831 131.429992676 hlineto
            endchar
          </CharString>
          <CharString index="112">
            -1 callgsubr
            222.220001221 163.619995117 return
          </CharString>
          <CharString index="113">
            -9 350 callgsubr
            95 callgsubr
            vstem
            377 callsubr
            279 callsubr
            254 callgsubr
            vlineto
            324.529998779 316.089996338 rmoveto
            182.63999939 252.270004272 rlineto
            -164.020004272 hlineto
            -181.149993896 -264.490005493 180.429992676 -303.869995117 rlineto
            180.119995117 hlineto
            endchar
          </CharString>
          <CharString index="114">
            -33 -221.710006714 104.990005493 112.169998169 112.5 56.4700012207 101.479995728 177.850006104 104.589996338 -69.4299926758 69.4299926758 return
          </CharString>
          <CharString index="115">
            82 21 -21 296.850006104 303 callgsubr
            268.699996948 -20 hstem
            67 callgsubr
            vstem
            return
          </CharString>
          <CharString index="116">
            112 -67.5 112.5 return
          </CharString>
          <CharString index="117">
            43.4900054932 -50.2400054932 -56.8500061035 22.2200012207 -74.4600067139 hhcurveto
            return
          </CharString>
          <CharString index="118">
            -65 66 callgsubr
            82.8300018311 -20 hstem
            48.5 422 vstem
            340.589996338 375.5 rmoveto
            129.899993896 42 callsubr
            -56.8099975586 hlineto
            49.4299926758 82.8300018311 -79.8899993896 44.4299926758 -76.1300048828 -127.259994507 rlineto
            -258.589996338 -122.5 185.309997559 hlineto
            -52.3399963379 -87.5 rlineto
            -132.970001221 -122.5 59.6900024414 hlineto
            -51.8699951172 -86.7100067139 80.2599945068 -45.1900024414 78.6999969482 131.899993896 rlineto
            255.220001221 42 callsubr
            -182.119995117 hlineto
            endchar
          </CharString>
          <CharString index="119">
            81 0 118.5 185.179992676 98.6399993896 172.180007935 119 hstem
            78.5 164 219.5 170 vstem
            78.5 693.5 rmoveto
            -291.179992676 -64.7299957275 -98.6399993896 64.7299957275 -303.679992676 208.5 vlineto
            177 168 70.5 279.5 286 -175 57.5 -185.5 hvcurveto
            -29 -575 rmoveto
            185.179992676 134.570007324 98.6399993896 -134.570007324 172.179992676 52.5 vlineto
            96.5 70.5 -38.5 -186 -184 -66.5 -47.5 -98.5 hvcurveto
            endchar
          </CharString>
          <CharString index="120">
            79 0 154.679992676 -133.679992676 -21 537.059997559 156.300003052 0 175 callsubr
            200 callsubr
            240.250015259 200 callsubr
            hintmask 01011100
            return
          </CharString>
          <CharString index="121">
            213 callgsubr
            116.830001831 -78.8400115967 231 callgsubr
            return
          </CharString>
          <CharString index="122">
            162 0 115.089996338 -94.0899963379 -21 416.399993896 151.960006714 0 -20 20.3699951172 335 callgsubr
            return
          </CharString>
          <CharString index="123">
            -65 1 216 callsubr
            -159.5 -21 269.960006714 122.449996948 90.0899963379 216 callsubr
            hstemhm
            169 181 hintmask 01111000
            259.5 664 rmoveto
            -50.5 -40 -41 -49 -50 40 -40.5 50.5 50.5 40 40.5 50 49 216 callgsubr
            hvcurveto
            -211.199996948 -270.589996338 rmoveto
            -122.449996948 422.070007324 122.449996948 vlineto
            hintmask 10111000
            -210.869995117 -211.910003662 rmoveto
            -50.5 -40 -41 -49 -50 40 -40.5 50.5 50.5 40 40.5 50 422 callgsubr
          </CharString>
          <CharString index="124">
            16.8500061035 250 callsubr
            rlineto
            -530.61000061 -126.460006714 179.190002441 -566.899993896 return
          </CharString>
          <CharString index="125">
            176.660003662 378.789993286 rlineto
            -10.1000061035 -38.7799987793 -11.4900054932 -69.4100036621 -81.1699981689 vvcurveto
            -189.440002441 vlineto
            endchar
          </CharString>
          <CharString index="126">
            39 callgsubr
            hstem
            394 callgsubr
            529.279998779 vstem
            523.710006714 425 callsubr
            -162.869995117 hlineto
            -103.75 -430.740005493 -94.9299926758 430.740005493 rlineto
            -167.729995728 hlineto
            161.429992676 182 callsubr
            54.0399932861 hlineto
            -28.75 -68.3000030518 -38.1000061035 -29.7899932861 -103.880004883 -13.0200042725 16.8500061035 -111.229995728 rcurveline
            166.539993286 9.14999389648 90.6399993896 78.2700042725 41.9799957275 134.410003662 rrcurveto
            endchar
          </CharString>
          <CharString index="127">
            327 0 121.5 94.7200012207 110.470001221 131.440002441 540 callgsubr
            110.369995117 334 callsubr
            285.620010376 209 callgsubr
            hintmask 11101100
            665 121.5 rmoveto
            hintmask 11011100
            447 -157.5 -568.5 373 vlineto
            16.5 121.5 rlineto
            hintmask 11101100
            -480.270004272 336.630004883 4 callsubr
          </CharString>
          <CharString index="128">
            49.6100006104 -52.7299957275 -68.6999969482 27.1100006104 -91.4799957275 hhcurveto
            return
          </CharString>
          <CharString index="129">
            -297 85 callsubr
            return
          </CharString>
          <CharString index="130">
            rmoveto
            44 callgsubr
            -28 callgsubr
            260 callgsubr
            hlineto
            return
          </CharString>
          <CharString index="131">
            -24 66 callgsubr
            83 -20 hstem
            69 422 vstem
            361.259994507 375.5 rmoveto
            129.740005493 42 callsubr
            -56.5800018311 hlineto
            49.5800018311 83 -80 -87 callsubr
            -76.2899932861 -127.5 rlineto
            -258.710006714 -122.5 185.410003662 hlineto
            -52.3600006104 -87.5 rlineto
            -133.050003052 -122.5 59.7599945068 hlineto
            -51.7599945068 -86.5 80 -51 callgsubr
            78.8399963379 132 rlineto
            255.160003662 42 callsubr
            -182 hlineto
            endchar
          </CharString>
          <CharString index="132">
            -24 -221.5 76 callgsubr
            850.5 76 callgsubr
            hstem
            199.5 157 vstem
            391.5 862 rmoveto
            -128 -64 -70 -123.5 hvcurveto
            -705.5 vlineto
            -48 -18 -20 -39.5 -26 -23 5 15 -32 vhcurveto
            -43.5 -103 rlineto
            -19.5 40 43 -14 61.5 hhcurveto
            -25 callsubr
            85 -10 callsubr
            134 hvcurveto
            706 vlineto
            49 16.5 207 callsubr
            43 26 25 -5.5 -14.5 32 vhcurveto
            43 103 rlineto
            19.5 -42.5 -30 callsubr
            14 -61.5 hhcurveto
            endchar
          </CharString>
          <CharString index="133">
            54.5599975586 233.050003052 rlineto
            endchar
          </CharString>
          <CharString index="134">
            -40 callsubr
            -30 callgsubr
            return
          </CharString>
          <CharString index="135">
            -44 277 callgsubr
            187.960006714 164.119995117 vstem
            32 callgsubr
            endchar
          </CharString>
          <CharString index="136">
            324 callgsubr
            hintmask 10101000
            -13.8200073242 102.539993286 rlineto
            -137.529998779 176 callgsubr
            264.509994507 hlineto
            hintmask 11001000
            34 callsubr
            hintmask 10011000
            332 callsubr
            hintmask 11001000
            150 callsubr
            endchar
          </CharString>
          <CharString index="137">
            175 callgsubr
            -144.619995117 227.11000061 58.25 227.119995117 -145.630004883 163.630004883 return
          </CharString>
          <CharString index="138">
            hstem
            86 callgsubr
            280 callsubr
            176.490005493 155.729995728 vstem
            return
          </CharString>
          <CharString index="139">
            -9 -67 callgsubr
            126.690002441 479.049987793 121.580001831 hstem
            33.2100067139 171.350006104 vstem
            return
          </CharString>
          <CharString index="140">
            146 126 callgsubr
            216.220001221 110.470001221 131.440002441 540 callgsubr
            110.369995117 334 callsubr
            285.620010376 158 hintmask 01110110
            665.5 hmoveto
            hintmask 01101110
            568.5 -158 -568.5 vlineto
            hintmask 10110110
            -90.7700042725 458.130004883 4 callsubr
          </CharString>
          <CharString index="141">
            80.3899993896 17.4499969482 27.6600036621 48.0599975586 64.6999969482 hhcurveto
            17.75 13.4900054932 -2.61999511719 -4.63000488281 16.6300048828 hvcurveto
            return
          </CharString>
          <CharString index="142">
            -72 126 callgsubr
            531.350006104 -20 hstemhm
            -10.5599975586 532.899993896 hintmask 01110000
            522.339996338 hmoveto
            -171.789993286 284.490005493 145.809997559 246.86000061 rlineto
            -168.130004883 hlineto
            -71.1499938965 -170.580001831 -73.8899993896 170.580001831 rlineto
            -177.11000061 hlineto
            154.279998779 -252.11000061 rlineto
            hintmask 10110000
            -170.919998169 -279.25 rlineto
            171.869995117 hlineto
            89.2799987793 198.720001221 rlineto
            hintmask 01110000
            92.2700042725 -198.720001221 rlineto
            endchar
          </CharString>
          <CharString index="143">
            47 callsubr
            -81.6000061035 hhcurveto
            endchar
          </CharString>
          <CharString index="144">
            -65 102.850006104 407.429992676 hstem
            55.8200073242 407.050003052 vstem
            462.869995117 422.770004272 rmoveto
            -87.1300048828 87.5099945068 -116.399993896 -118.63999939 -116.38999939 118.63999939 -87.1300048828 -87.5099945068 118.259994507 -116.38999939 -118.259994507 -116.399993896 87.1300048828 -87.1300048828 116.38999939 118.270004272 116.399993896 -118.270004272 87.1300048828 87.1300048828 -118.270004272 116.399993896 rlineto
            endchar
          </CharString>
          <CharString index="145">
            17 35 callgsubr
            115.339996338 334.640014648 115.339996338 249 callgsubr
            return
          </CharString>
          <CharString index="146">
            16.2200012207 104 callsubr
            return
          </CharString>
          <CharString index="147">
            122.039993286 247.630004883 rlineto
            -148.550003052 380 callsubr
            -138.429992676 -209.149993896 -49.4600067139 hlineto
            -93.8099975586 209.149993896 rlineto
            -149.539993286 hlineto
            122.039993286 -247.630004883 -134.190002441 -283.729995728 rlineto
            159.770004272 hlineto
            97.9799957275 226.539993286 rlineto
            47.2100067139 -226.539993286 138.440002441 226.539993286 47.5800018311 hlineto
            96.9799957275 -226.539993286 rlineto
            return
          </CharString>
          <CharString index="148">
            83.5599975586 40.4199981689 -37.9100036621 -63.1900024414 -65.4299926758 -44.0399932861 -35.6799926758 -72.5899963379 -56.1699981689 -42.2799987793 21.2599945068 40.1300048828 -42.4900054932 hvcurveto
            -87.7599945068 -85.1300048828 rlineto
            -63 57.8699951172 77.1300048828 -34.3600006104 105.550003052 hhcurveto
            163.169998169 113.339996338 82.7599945068 130.979995728 102.63999939 -68.3999938965 56.8699951172 -107.039993286 11.4900054932 hvcurveto
            return
          </CharString>
          <CharString index="149">
            122.5 return
          </CharString>
          <CharString index="150">
            -55 21 -21 144.679992676 128.050003052 134.910003662 128.050003052 hstem
            190.449996948 147.770004272 vstem
            338.220001221 407.63999939 rmoveto
            165.270004272 128.050003052 -165.270004272 188 callsubr
            495 callgsubr
            165.270004272 -134.910003662 451 callgsubr
            -144.679992676 147.770004272 144.679992676 165.270004272 128.050003052 -165.270004272 hlineto
            endchar
          </CharString>
          <CharString index="151">
            -24.5 -20.5 -5 -10 -23.5 hvcurveto
            75.5 return
          </CharString>
          <CharString index="152">
            -531.36000061 return
          </CharString>
          <CharString index="153">
            40.4900054932 -49.3800048828 -68.6999969482 25.1100006104 -77.1100006104 hhcurveto
            return
          </CharString>
          <CharString index="154">
            41.3600006104 -49.4900054932 -58.6999969482 24.7299957275 return
          </CharString>
          <CharString index="155">
            -35 45 -23 callsubr
            35 -91 callsubr
            -35 35 -51 callgsubr
            hvcurveto
            231 hmoveto
            return
          </CharString>
          <CharString index="156">
            180 callsubr
            -138.440002441 -209.149993896 -49.4499969482 hlineto
            -93.8099975586 209.149993896 rlineto
            -149.550003052 hlineto
            122.039993286 -247.630004883 -134.190002441 -283.729995728 rlineto
            159.779998779 hlineto
            97.9799957275 226.539993286 rlineto
            47.2100067139 -226.539993286 138.429992676 226.539993286 47.5899963379 hlineto
            96.9799957275 -226.539993286 rlineto
            160.770004272 hlineto
            endchar
          </CharString>
          <CharString index="157">
            hstem
            -8 callgsubr
            vstem
            return
          </CharString>
          <CharString index="158">
            -58 callgsubr
            -30 callgsubr
            return
          </CharString>
          <CharString index="159">
            140.699996948 246.490005493 rlineto
            -152.059997559 hlineto
            -114.320007324 -207.63999939 rlineto
            -52.1900024414 207.63999939 -158 176 callgsubr
            228.050003052 48.3200073242 hlineto
            115.490005493 -228.050003052 rlineto
            return
          </CharString>
          <CharString index="160">
            18 0 64 callsubr
            return
          </CharString>
          <CharString index="161">
            164.11000061 return
          </CharString>
          <CharString index="162">
            -141 0 114.100006104 342.659988403 111.600006104 hstem
            18.2100067139 406.490005493 vstem
            424.699996948 456.75 rmoveto
            111.61000061 -406.490005493 -110.979995728 vlineto
            159.979995728 -178.759994507 -159.979995728 -167.38999939 rlineto
            -111.229995728 406.490005493 114.100006104 -235.630004883 vlineto
            139.979995728 138.660003662 rlineto
            55.1100006104 vlineto
            -138.11000061 148.88999939 rlineto
            endchar
          </CharString>
          <CharString index="163">
            10 144 callgsubr
            214.550003052 89 callgsubr
            vstem
            return
          </CharString>
          <CharString index="164">
            8 callgsubr
            vstem
            return
          </CharString>
          <CharString index="165">
            rmoveto
            -94.5899963379 -79.0899963379 -31.4900054932 -60.3600006104 -64.8699951172 hvcurveto
            78.7700042725 -83.7799987793 rlineto
            38.2700042725 46.5099945068 44.5299987793 18.2599945068 46.4199981689 hhcurveto
            65.5599975586 25.2899932861 -36.1699981689 -44.9199981689 -54.1900024414 -37.6799926758 -32.4199981689 -65.9299926758 hvcurveto
            -56.4900054932 hlineto
            -19.2200012207 -117.220001221 rlineto
            72.8500061035 hlineto
            return
          </CharString>
          <CharString index="166" raw="1">
            7c0a680b   
          </CharString>
          <CharString index="167">
            68 callgsubr
            -256.330001831 return
          </CharString>
          <CharString index="168">
            rmoveto
            -51.4499969482 -38.7200012207 -39.0899963379 -50.4600067139 -31.4700012207 14.1199951172 -26.6000061035 25.0899963379 -16.7400054932 hvcurveto
            -42.4900054932 -176.580001831 rlineto
            88.4199981689 hlineto
            63.8800048828 144.899993896 rlineto
            21.7200012207 48.9299926758 9.97999572754 26.8500061035 30.0899963379 vvcurveto
            51.0800018311 -38.7200012207 39.0899963379 -51.8300018311 vhcurveto
            endchar
          </CharString>
          <CharString index="169">
            -17 callgsubr
            50 callgsubr
            return
          </CharString>
          <CharString index="170">
            263 0 124.089996338 404.960006714 164.309997559 0 -20 hstemhm
            9.41999816895 827.690002441 hintmask 10110000
            return
          </CharString>
          <CharString index="171">
            136.949996948 -115.949996948 -21 431.279998779 137.080001831 0 -20 return
          </CharString>
          <CharString index="172">
            -21 127 callgsubr
            return
          </CharString>
          <CharString index="173">
            54.5099945068 -28 callgsubr
            166.899993896 157.38999939 return
          </CharString>
          <CharString index="174">
            -233 187 callsubr
            vlineto
            -92 callsubr
            return
          </CharString>
          <CharString index="175">
            12 -3 27 -5 13 -1 1 4 rcurveline
            -17 15 -23 17 24 vvcurveto
            2 0 2 1 3 vhcurveto
            3 hlineto
            15 -25 31 -22 59 -21 119 -43 4 16 34 -28 rrcurveto
            0 -28 -18 -19 -2 vhcurveto
            -20 4 -84 29 -35 19 -9 -4 -113 -29 -26 -1 -69 9 -52 45 -25 29 -10 3 rcurveline
            -45 56 -61 7 -4 vhcurveto
            39 -16 rlineto
            -5 vlineto
            -22 -13 -43 -25 -39 vvcurveto
            6 -1 16 14 34 15 13 1 rlinecurve
            -1 1 0 -1 vvcurveto
            -17 -26 rlineto
            -12 -2 -17 -5 -14 vhcurveto
            -18 -49 27 14 -18 hvcurveto
            -4 -3 7 -22 35 -44 27 -20 rlinecurve
            return
          </CharString>
          <CharString index="176">
            rmoveto
            -57 callgsubr
            190.089996338 vlineto
            158.779998779 144.149993896 59.1100006104 228.759994507 232.619995117 -152.61000061 47.8699951172 -162.339996338 hvcurveto
            -20.6900024414 -111.470001221 rmoveto
            41.1900024414 hlineto
            80.9199981689 51.7799987793 -33.6000061035 -135.419998169 -137.529998779 -47.7799987793 -38.6199951172 -83.2799987793 hvcurveto
            -42.8300018311 hlineto
            endchar
          </CharString>
          <CharString index="177">
            446.779998779 254 callgsubr
            372.940002441 vlineto
            16.6100006104 121.580001831 rlineto
            return
          </CharString>
          <CharString index="178">
            909.5 rmoveto
            -223.5 120 -58.5 -118.5 241.5 -81.5 rlineto
            hintmask 11110100
            133 callsubr
            hintmask 11101000
            return
          </CharString>
          <CharString index="179">
            rmoveto
            133.220001221 -84.1100006104 56.4400024414 64.9199981689 -141.229995728 129.300003052 rlineto
            -96.4900054932 hlineto
            -141.600006104 -129.300003052 56.8099975586 -64.9199981689 rlineto
            endchar
          </CharString>
          <CharString index="180">
            -165.5 rlineto
            return
          </CharString>
          <CharString index="181">
            rmoveto
            -56.4400024414 64.9299926758 -133.220001221 -84.1199951172 -132.850006104 84.1199951172 -56.8099975586 -64.9299926758 141.600006104 -129.300003052 rlineto
            96.4900054932 hlineto
            endchar
          </CharString>
          <CharString index="182">
            -57 callgsubr
            -28 callgsubr
            return
          </CharString>
          <CharString index="183">
            -18.8699951172 40.7100067139 -18.75 21.8699951172 -37.4600067139 33.8300018311 -104.300003052 96.0399932861 rcurveline
            -88 -92.1300048828 339.779998779 -307.149993896 339.770004272 307.149993896 -88 92.1300048828 -104.300003052 -96.0399932861 -37.4499969482 -33.8300018311 -18.7599945068 -21.8699951172 -18.8699951172 -40.7100067139 rlinecurve
            return
          </CharString>
          <CharString index="184">
            -308 87 callgsubr
            return
          </CharString>
          <CharString index="185">
            911 rmoveto
            -58.5 118.5 -223.5 -120 40.5 -80 rlineto
            hintmask 11110100
            133 callgsubr
            hintmask 11101000
            return
          </CharString>
          <CharString index="186">
            108 callsubr
            145.270004272 250 callgsubr
            return
          </CharString>
          <CharString index="187">
            -56 21 -21 568.350006104 479 callgsubr
            return
          </CharString>
          <CharString index="188">
            -175 187 callgsubr
            rmoveto
            -90 callgsubr
            -35.5 -34 -43 -43.5 35.5 -34 -87 callsubr
            44 -17 callsubr
            34 43.5 43 -34.5 34 -44 hvcurveto
            266 hmoveto
            -43 -35.5 -34 -43 -43.5 35.5 -34 43 -23 callsubr
            -17 callsubr
            34 43.5 43 -34.5 34 -51 callgsubr
            hvcurveto
            return
          </CharString>
          <CharString index="189">
            -57 callgsubr
            vlineto
            endchar
          </CharString>
          <CharString index="190">
            -21 -15 callgsubr
            -20 return
          </CharString>
          <CharString index="191">
            -104 -67 callgsubr
            112.600006104 126.569992065 101.88999939 114.899993896 109.36000061 464 callgsubr
            164.509994507 -144.129989624 159.75 hintmask 11110000
            return
          </CharString>
          <CharString index="192">
            21 130 callsubr
            return
          </CharString>
          <CharString index="193">
            15 0 120.339996338 451.300003052 121.720001221 0 376 callgsubr
            625.800003052 hintmask 10110000
            612.490005493 hmoveto
            -213.169998169 119 callgsubr
            -198.460006714 hlineto
            -214.169998169 81 callgsubr
            197.460006714 120.339996338 rmoveto
            hintmask 11010000
            113.940002441 451.300003052 112.949996948 -451.300003052 rlineto
            endchar
          </CharString>
          <CharString index="194">
            69.5 -30 callsubr
            31.5 -62 4 return
          </CharString>
          <CharString index="195">
            305.5 return
          </CharString>
          <CharString index="196">
            -47.4600067139 -37.4700012207 -34.8500061035 -45.5899963379 -31.2100067139 13.9799957275 -21.3600006104 22.6100006104 -16.1100006104 hvcurveto
            -41.25 -156.850006104 rlineto
            81.1699981689 hlineto
            63.2700042725 131.410003662 rlineto
            21.0899963379 43.5700073242 7.74000549316 23.9600067139 25.9600067139 vvcurveto
            return
          </CharString>
          <CharString index="197">
            vstem
            292.369995117 189 callsubr
            -162.449996948 -77 callgsubr
            162.070007324 -70 callgsubr
            -161.199996948 hvcurveto
            -116.339996338 vmoveto
            return
          </CharString>
          <CharString index="198">
            261 0 118.350006104 30.9799957275 118.720001221 24.8899993896 315 callsubr
            167.470001221 117.710006714 hstemhm
            -23.2100067139 835.63999939 hintmask 10111000
            return
          </CharString>
          <CharString index="199">
            70.0899963379 390.449996948 70.8300018311 -390.449996948 rlineto
            endchar
          </CharString>
          <CharString index="200">
            hstemhm
            -13.3099975586 617.039993286 return
          </CharString>
          <CharString index="201">
            -15.3600006104 return
          </CharString>
          <CharString index="202">
            -53 270.580001831 122.080001831 156.220001221 -20 hstem
            199.529998779 131.320007324 vstem
            330.850006104 392.660003662 rmoveto
            156.220001221 -131.320007324 -156.220001221 -151.229995728 -122.080001831 151.229995728 -155.850006104 131.320007324 155.850006104 151.600006104 122.080001831 vlineto
            endchar
          </CharString>
          <CharString index="203">
            -21.1000061035 -94 rlineto
            -71.8999938965 hlineto
            99 224 -99 -42 callsubr
            return
          </CharString>
          <CharString index="204">
            vstem
            345.369995117 710.339996338 rmoveto
            -195.039993286 -21 callsubr
            -231 117.130004883 -132.720001221 195.039993286 195.419998169 116.75 457 callsubr
            -116.75 131.850006104 -195.419998169 hvcurveto
            -120.339996338 vmoveto
            return
          </CharString>
          <CharString index="205">
            898.5 rmoveto
            -117 66 -97 -182.5 71.5 -40.5 rlineto
            return
          </CharString>
          <CharString index="206">
            -55 21 -21 407.63999939 128.059997559 hstem
            190.449996948 147.770004272 vstem
            338.220001221 535.699996948 rmoveto
            188 callsubr
            -128.059997559 165.270004272 -407.63999939 147.770004272 407.63999939 165.270004272 128.059997559 vlineto
            endchar
          </CharString>
          <CharString index="207">
            -84.5 -46 -65.5 -61.5 return
          </CharString>
          <CharString index="208">
            vstem
            292.699996948 689.580001831 rmoveto
            -166.190002441 -88.9499969482 -125.490005493 -226.979995728 -226.36000061 88.9499969482 -127.729995728 166.190002441 166.190002441 88.9400024414 127.729995728 226.36000061 226.61000061 -88.9400024414 125.869995117 -166.190002441 hvcurveto
            return
          </CharString>
          <CharString index="209">
            748 185 callgsubr
            45 callgsubr
            return
          </CharString>
          <CharString index="210">
            63 15.5 30 37 50 vvcurveto
            60 -53 -43 callgsubr
            -101 return
          </CharString>
          <CharString index="211">
            -32 callsubr
            rlineto
            return
          </CharString>
          <CharString index="212">
            rmoveto
            88 90 -40 callsubr
            107 107.5 -90 62.5 -88 -88 -90.5 -62 -107.5 -107.5 415 callsubr
            -64.5 88 hvcurveto
            92.5 vmoveto
            -42 -28 31 48.5 48.5 28 30 42 42 187 callgsubr
            -31 -48 -48 410 callgsubr
            -31 -42 hvcurveto
            endchar
          </CharString>
          <CharString index="213">
            301 callgsubr
            127.340011597 107.11000061 139.169998169 111.600006104 return
          </CharString>
          <CharString index="214">
            7 0 151.210006714 -130.210006714 -21 378.789993286 152.570007324 0 -20 return
          </CharString>
          <CharString index="215">
            hstemhm
            26.3300018311 157.13999939 return
          </CharString>
          <CharString index="216">
            -21 431.509994507 116.830001831 return
          </CharString>
          <CharString index="217">
            vstem
            280 465 callgsubr
            -159.960006714 -88.9499969482 -125.490005493 -237.36000061 -236.740005493 88.9499969482 -127.729995728 159.960006714 159.960006714 88.9400024414 127.729995728 236.740005493 236.979995728 -88.9400024414 125.869995117 -159.960006714 hvcurveto
            return
          </CharString>
          <CharString index="218">
            hlineto
            -14 -112 rlineto
            174 callsubr
            -23.5 -22.5 -19.5 -8 -30 -22.5 -18.5 6.5 10.5 -20 hvcurveto
            -36 -73 rlineto
            -16 24.5 40 -14 46 hhcurveto
            92 58.5 47 68 hvcurveto
            hintmask 11110000
            54 -33.5 37 -71 8 vhcurveto
            return
          </CharString>
          <CharString index="219">
            445 -253.020004272 rmoveto
            -99.6100006104 -78.9600067139 160 callsubr
            177 callgsubr
            78.9600067139 170 callgsubr
            99.6100006104 100.220001221 77.3399963379 160 callgsubr
            116 callgsubr
            -100.220001221 hvcurveto
            return
          </CharString>
          <CharString index="220">
            26 callgsubr
            137 callsubr
            return
          </CharString>
          <CharString index="221">
            -65 575.899993896 -20 hstem
            34.4299926758 449.809997559 vstem
            484.240005493 402.410003662 rmoveto
            -400 173.490005493 -49.8099975586 -110.869995117 315.789993286 -132.039993286 -315.789993286 -127.809997559 49.8099975586 -115.089996338 400 172.869995117 rlineto
            endchar
          </CharString>
          <CharString index="222">
            hstemhm
            6.32000732422 141.529998779 -116.900009155 209 callgsubr
            -125.879989624 134.190002441 return
          </CharString>
          <CharString index="223">
            42.7899932861 13.2599945068 return
          </CharString>
          <CharString index="224">
            51.9199981689 12.2700042725 return
          </CharString>
          <CharString index="225">
            -25 callgsubr
            hintmask 00000000
            return
          </CharString>
          <CharString index="226">
            462 callgsubr
            221 122 hstem
            220.5 318 callgsubr
            vstem
            352 465.5 rmoveto
            156 -131.5 -156 371 callgsubr
            -434.5 -343 -34 callgsubr
            endchar
          </CharString>
          <CharString index="227">
            rmoveto
            -195.039993286 -21 callsubr
            -231 117.130004883 -132.720001221 195.039993286 195.410003662 116.759994507 457 callsubr
            -116.759994507 131.850006104 -195.410003662 hvcurveto
            -120.339996338 vmoveto
            return
          </CharString>
          <CharString index="228">
            22 callsubr
            136.63999939 -25 callsubr
            307 callgsubr
            -9.5 685 -52 callsubr
            231.759994507 -794.5 rmoveto
            -48 callgsubr
          </CharString>
          <CharString index="229">
            548.339996338 return
          </CharString>
          <CharString index="230">
            142 callgsubr
            -49.5800018311 223 callgsubr
            50.2100067139 50.5899963379 222 callsubr
            49.5800018311 197 callgsubr
            -50.5899963379 hvcurveto
            endchar
          </CharString>
          <CharString index="231">
            -36.2100067139 -34.9600067139 -43.8300018311 -44.4600067139 36.2100067139 -34.9600067139 return
          </CharString>
          <CharString index="232">
            hstem
            352 callgsubr
            59 callgsubr
            vstem
            return
          </CharString>
          <CharString index="233">
            18 155 callsubr
            endchar
          </CharString>
          <CharString index="234">
            rmoveto
            -77 callsubr
            hintmask 11001100
            241 callgsubr
            hintmask 11001100
            220 callsubr
            hintmask 11010100
            return
          </CharString>
          <CharString index="235">
            -121 -268.5 rlineto
            -78.5 191.240005493 vlineto
            return
          </CharString>
          <CharString index="236">
            109 70.5 61.5 92 return
          </CharString>
          <CharString index="237">
            -21 224 callgsubr
            return
          </CharString>
          <CharString index="238">
            226 callgsubr
            460.5 rmoveto
            183 callsubr
            411 callgsubr
            35 -23 callsubr
            31.5 -14 21 -23 16.5 hvcurveto
            41.5 156.5 rlineto
            -81 hlineto
            -63.5 -131 rlineto
            -21 -44 -8 -23.5 -26 vvcurveto
            -30 callsubr
            36 -35 48 vhcurveto
            return
          </CharString>
          <CharString index="239">
            -96 0 123.699996948 324.830001831 119.830001831 hstem
            17.5399932861 443.820007324 vstem
            return
          </CharString>
          <CharString index="240">
            -216.5 -22.5 rmoveto
            -45 431 callsubr
            45 46 -17 callsubr
            199 callgsubr
            -29 callsubr
            -46 hvcurveto
            244 162 callsubr
            return
          </CharString>
          <CharString index="241">
            21 21 -21 450.020004272 464 callsubr
            -40 callsubr
            -28 callgsubr
            161.279998779 235 callsubr
            540.539993286 279 callsubr
            -476.039993286 75 callsubr
            450.020004272 161.279998779 -450.020004272 vlineto
            endchar
          </CharString>
          <CharString index="242">
            hlineto
            52.7299957275 28.8699951172 11.3800048828 36.2400054932 55.6600036621 vvcurveto
            endchar
          </CharString>
          <CharString index="243">
            -53 0 42 callsubr
            221 122 hstem
            200 131 vstem
            331 465.5 rmoveto
            156 -131 -156 -151.5 -122 392 callsubr
            -156 131 156 152 122 vlineto
            -434.5 -343 -34 callgsubr
            endchar
          </CharString>
          <CharString index="244">
            163.759994507 return
          </CharString>
          <CharString index="245">
            117.63999939 -28.8899993896 95.4900054932 -34.3600006104 76.1199951172 vhcurveto
            endchar
          </CharString>
          <CharString index="246">
            121 766 292 callsubr
            -41 -157 rlineto
            81 hlineto
            63 318 callgsubr
            rlineto
            207 callsubr
            43.5 7.5 24 26 vvcurveto
            46 -36 35 -47.5 vhcurveto
            return
          </CharString>
          <CharString index="247">
            7 -15.3600006104 113.850006104 470.869995117 372 callsubr
            return
          </CharString>
          <CharString index="248">
            -21.0200042725 -18.5099945068 -5.13000488281 -18.0200042725 hhcurveto
            return
          </CharString>
          <CharString index="249">
            252.979995728 76 252.979995728 -149.979995728 171.36000061 return
          </CharString>
          <CharString index="250">
            109 74.5 121.5 return
          </CharString>
          <CharString index="251">
            -24 270.5 122 156.5 -20 hstem
            220 318 callgsubr
            vstem
            497 callgsubr
            392.5 rmoveto
            156.5 -131.5 -156.5 371 callgsubr
            endchar
          </CharString>
          <CharString index="252">
            vstem
            322.979995728 334.190002441 rmoveto
            -189.320007324 221.979995728 -97.3399963379 -64.7799987793 128.770004272 -206.880004883 -128.770004272 -206.88999939 97.3399963379 -64.7700042725 189.320007324 221.600006104 rlineto
            return
          </CharString>
          <CharString index="253">
            109 callsubr
            249 callgsubr
            return
          </CharString>
          <CharString index="254">
            -302 166 callsubr
            return
          </CharString>
          <CharString index="255">
            86.5 return
          </CharString>
          <CharString index="256">
            rmoveto
            -61.9199981689 -48.25 -25 -48.8300018311 -42.7200012207 hvcurveto
            283.449996948 210 callsubr
            363.800003052 vlineto
            43.1600036621 27.5299987793 29.7899932861 24.5399932861 return
          </CharString>
          <CharString index="257">
            5.24000549316 -17.8699951172 -15.8800048828 2.63000488281 -19.4900054932 hhcurveto
            return
          </CharString>
          <CharString index="258">
            154 callsubr
            vstem
            435.699996948 447.149993896 rmoveto
            16.7299957275 338 callsubr
            rlineto
            -387.919998169 -57 callgsubr
            95 callgsubr
            447.149993896 hlineto
            endchar
          </CharString>
          <CharString index="259">
            270 callgsubr
            50 50.5 40 41 200 callgsubr
            return
          </CharString>
          <CharString index="260">
            vstem
            322.979995728 491.38999939 rmoveto
            -97.3399963379 64.7799987793 -189.320007324 -221.979995728 rlineto
            -99.7400054932 vlineto
            189.320007324 -221.600006104 97.3399963379 64.7700042725 -128.779998779 206.88999939 rlineto
            return
          </CharString>
          <CharString index="261">
            -131 21 -21 447.149993896 338 callsubr
            -20 callgsubr
            95 callgsubr
            return
          </CharString>
          <CharString index="262">
            73 callsubr
            109 hlineto
            return
          </CharString>
          <CharString index="263">
            35.3399963379 110 callgsubr
            return
          </CharString>
          <CharString index="264">
            rmoveto
            187.050003052 536 callgsubr
            213.660003662 vlineto
            136.869995117 99.4900054932 310 callsubr
            -89 60.1199951172 -151.960006714 hvcurveto
            437.449996948 187.050003052 rmoveto
            return
          </CharString>
          <CharString index="265">
            18 73 callsubr
            return
          </CharString>
          <CharString index="266">
            -46 rlineto
            30 16 14 25.5 37 hhcurveto
            return
          </CharString>
          <CharString index="267">
            170 callgsubr
            -110.229995728 return
          </CharString>
          <CharString index="268">
            -290 37 callgsubr
            return
          </CharString>
          <CharString index="269">
            hmoveto
            -44.5 -36 -35 -44 308 callsubr
            46 35 199 callgsubr
            -35 35 -46 hvcurveto
            return
          </CharString>
          <CharString index="270">
            rmoveto
            -219.679992676 125.059997559 -60.1699981689 -118.720001221 239.660003662 -86.4700012207 rlineto
            endchar
          </CharString>
          <CharString index="271">
            -96.8099975586 -40.4700012207 -28.4900054932 -67.75 -31.3699951172 vhcurveto
            52.5299987793 -114.949996948 rlineto
            124.449996948 45.6399993896 89.25 334 callgsubr
            return
          </CharString>
          <CharString index="272">
            -125 0 119.960006714 292.299987793 119.089996338 return
          </CharString>
          <CharString index="273">
            21 83 callsubr
            return
          </CharString>
          <CharString index="274">
            rmoveto
            -10 callsubr
            return
          </CharString>
          <CharString index="275">
            24 50 33 17 21 hvcurveto
            2 -1 10 -2 11 6 7 0 6 hflex1
            18 8 41 101 14 vvcurveto
            11 -6 14 -3 32 vhcurveto
            -2 19 -2 43 -3 9 -15 41 -89 18 -101 43 rrcurveto
            -60 26 -30 34 0 0 3 10 13 vvcurveto
            27 -24 73 -84 -38 -35 -11 -3 -10 vhcurveto
            return
          </CharString>
          <CharString index="276">
            498 callgsubr
            122.240005493 146.529998779 122.25 154.649993896 return
          </CharString>
          <CharString index="277">
            174 callgsubr
            317.960006714 260 callgsubr
            rmoveto
            142.699996948 hlineto
            22 callgsubr
            return
          </CharString>
          <CharString index="278">
            -55.3800048828 130 callgsubr
            endchar
          </CharString>
          <CharString index="279">
            74.4900054932 130.5 80 hstem
            27 282 callgsubr
            103.339996338 122.660003662 vstem
            199 return
          </CharString>
          <CharString index="280">
            127.320007324 hstem
            17.5500030518 499.929992676 vstem
            return
          </CharString>
          <CharString index="281">
            -40 callsubr
            187 callgsubr
            -10 return
          </CharString>
          <CharString index="282">
            -20 104 callgsubr
            return
          </CharString>
          <CharString index="283">
            87.5 return
          </CharString>
          <CharString index="284">
            -30.0399932861 vvcurveto
            -36.7899932861 -31.6600036621 -20.6399993896 -46.4199981689 -24.8699951172 vhcurveto
            58.9299926758 -94.5099945068 rlineto
            122.940002441 51.9799957275 58.7200012207 return
          </CharString>
          <CharString index="285">
            rmoveto
            79 -296.5 -86.5 176.5 vlineto
            -146 -308 105 -38.5 rlineto
            endchar
          </CharString>
          <CharString index="286">
            57.2100067139 34.6600036621 23.5899963379 -16.8600006104 -27.6900024414 23.8999938965 return
          </CharString>
          <CharString index="287">
            -94.8099975586 -209.149993896 rlineto
            -49.8300018311 209.149993896 return
          </CharString>
          <CharString index="288">
            199 callsubr
            -65.0399932861 -45.0200042725 25.4600067139 return
          </CharString>
          <CharString index="289">
            45 callsubr
            rlineto
            return
          </CharString>
          <CharString index="290">
            47.5 return
          </CharString>
          <CharString index="291">
            283 callgsubr
            208 callgsubr
            -12.2599945068 -42.4100036621 -51.9299926758 238 callsubr
            -13.2700042725 43.1699981689 42.0399932861 42.7899932861 13.2700042725 return
          </CharString>
          <CharString index="292">
            437 callsubr
            333 callgsubr
            -360.63999939 158 387.960006714 vlineto
            return
          </CharString>
          <CharString index="293">
            139.789993286 return
          </CharString>
          <CharString index="294">
            79.5 return
          </CharString>
          <CharString index="295">
            166 callgsubr
            -165.270004272 return
          </CharString>
          <CharString index="296">
            122 callsubr
            rmoveto
            return
          </CharString>
          <CharString index="297">
            108 callgsubr
            100.13999939 301 callsubr
            hstemhm
            57 158 -139 -25 callgsubr
            83 -25 callgsubr
            -117.580001831 158.369995117 hintmask 11110010
            return
          </CharString>
          <CharString index="298">
            -24 267 42 callsubr
            hstem
            372.5 131 vstem
            503.5 137 callgsubr
            rmoveto
            276 -434.5 -122.5 303.5 -153.5 vlineto
            endchar
          </CharString>
          <CharString index="299">
            rmoveto
            -97.6199951172 61.3000030518 -463 return
          </CharString>
          <CharString index="300">
            -41.6399993896 19.3800048828 46.3699951172 -41.3699951172 hvcurveto
            -87.1300048828 -83.75 rlineto
            -64.1199951172 52.8699951172 76.8500061035 -38.3399963379 return
          </CharString>
          <CharString index="301">
            -65 270.960006714 122.449996948 hstem
            48.3000030518 422.070007324 vstem
            48.3000030518 393.410003662 rmoveto
            -122.449996948 422.070007324 122.449996948 vlineto
            endchar
          </CharString>
          <CharString index="302">
            156 callgsubr
            171.36000061 return
          </CharString>
          <CharString index="303">
            -112.380004883 252.979995728 118.61000061 return
          </CharString>
          <CharString index="304">
            -21 225 callgsubr
            250 callsubr
            return
          </CharString>
          <CharString index="305">
            13 217 callgsubr
            rlineto
            -283 return
          </CharString>
          <CharString index="306">
            -43.2899932861 hhcurveto
            return
          </CharString>
          <CharString index="307">
            146.899993896 return
          </CharString>
          <CharString index="308">
            vstem
            323 379 rmoveto
            -189.5 222 -97 -64.5 128.5 -207 -128.5 -207 97 233 callsubr
            return
          </CharString>
          <CharString index="309">
            -158 235 callgsubr
            -742.119995117 vlineto
            324.899993896 297.740005493 rmoveto
            161 233.619995117 rlineto
            -160.899993896 hlineto
            -162.25 -240.869995117 rlineto
            return
          </CharString>
          <CharString index="310">
            rmoveto
            -189.5 222 -97.5 -64.5 129 -207 -129 -207 97.5 421 callgsubr
          </CharString>
          <CharString index="311">
            -60.9199981689 -52.3600006104 -44.4799957275 -73.1699981689 -23.5200042725 hvcurveto
            return
          </CharString>
          <CharString index="312">
            26.9900054932 32.9100036621 16.9199981689 49.6300048828 hhcurveto
            69.2100067139 return
          </CharString>
          <CharString index="313">
            88 callgsubr
            endchar
          </CharString>
          <CharString index="314">
            21.5 return
          </CharString>
          <CharString index="315">
            88.5 return
          </CharString>
          <CharString index="316">
            94 callgsubr
            100.149993896 301 callsubr
            hstemhm
            63 -25 callgsubr
            -39.9499969482 59 callgsubr
            -34.8000030518 -25 callgsubr
            hintmask 11101000
            return
          </CharString>
          <CharString index="317">
            vlineto
            hintmask 11101100
            -158 -16.2299957275 rlineto
            -741.729995728 158 return
          </CharString>
          <CharString index="318">
            -200.720001221 -21 37.6100006104 -21 return
          </CharString>
          <CharString index="319">
            -59 callgsubr
            rmoveto
            return
          </CharString>
          <CharString index="320">
            115.720001221 185.130004883 124.979995728 -43.6000061035 88.8999938965 -79.3099975586 46.2100067139 hvcurveto
            -151.63999939 -76.3300018311 rmoveto
            return
          </CharString>
          <CharString index="321">
            rmoveto
            -97 -40 callsubr
            -189.5 -222 rlineto
            -99.5 vlineto
            189.5 -221.5 97 -40 callsubr
            -128.5 207 rlineto
            endchar
          </CharString>
          <CharString index="322">
            -99.5 -79 -69 -110.5 -110 79 -69.5 258 callgsubr
            return
          </CharString>
          <CharString index="323">
            180.5 return
          </CharString>
          <CharString index="324">
            226.759994507 return
          </CharString>
          <CharString index="325">
            -217 -34 callgsubr
            endchar
          </CharString>
          <CharString index="326">
            -24 576 -20 hstem
            55 450 vstem
            505 402.5 221 callsubr
            -128 50 -115 400 173 rlineto
            endchar
          </CharString>
          <CharString index="327">
            79 -38.5 rlineto
            29 16 13 15 24 hhcurveto
            hintmask 11100100
            -1 callsubr
            return
          </CharString>
          <CharString index="328">
            rmoveto
            -400 173.5 -50 -111 316 -132 -316 return
          </CharString>
          <CharString index="329">
            39.9600067139 40.9600067139 return
          </CharString>
          <CharString index="330">
            -195.039993286 -117.130004883 return
          </CharString>
          <CharString index="331">
            125.5 return
          </CharString>
          <CharString index="332">
            100.75 return
          </CharString>
          <CharString index="333">
            rlineto
            hintmask 10101100
            -2.02000427246 15.8800048828 16.5200042725 -1.02000427246 17.1100006104 hhcurveto
            195.419998169 116.75 137.339996338 return
          </CharString>
          <CharString index="334">
            9 5 -27 -18 -24 -9 -20 0 hvcurveto
            0 -70 7 -57 15 vhcurveto
            -77 19 -136 95 -87 72 -50 21 rcurveline
            -3 -3 53 -60 rlineto
            6 -6 12 -17 0 -11 0 -18 -15 -26 -4 flex1
            return
          </CharString>
          <CharString index="335">
            -21 392.960006714 316 callsubr
            -15.1100006104 -20 27.2400054932 -20 return
          </CharString>
          <CharString index="336">
            hstemhm
            33.7100067139 159.63999939 return
          </CharString>
          <CharString index="337">
            89 -55.5 50 -72 return
          </CharString>
          <CharString index="338">
            89.5 return
          </CharString>
          <CharString index="339">
            146 rmoveto
            -67 67 154 154 -154 153 67 69 154 -155 154 155 67 -69 -154 -153 154 -154 -67 -67 -154 154 rlineto
            endchar
          </CharString>
          <CharString index="340">
            -64.5 189.5 221.5 rlineto
            return
          </CharString>
          <CharString index="341">
            rmoveto
            131 callgsubr
            return
          </CharString>
          <CharString index="342">
            -28 callgsubr
            vstem
            return
          </CharString>
          <CharString index="343">
            hstem
            432 callsubr
            237.429992676 438 callsubr
            vstem
            return
          </CharString>
          <CharString index="344">
            hstem
            156 callgsubr
            339 callgsubr
            187.789993286 352 callsubr
            vstem
            return
          </CharString>
          <CharString index="345">
            -51.5399932861 return
          </CharString>
          <CharString index="346">
            0 116.339996338 415.020004272 -20 hstem
            62 352 callsubr
            110.470001221 134.699996948 110.470001221 352 callsubr
            vstem
            return
          </CharString>
          <CharString index="347">
            -84.5 -46 -65.5 420 callsubr
            30 16 14 25.5 37 hhcurveto
            return
          </CharString>
          <CharString index="348">
            263 callgsubr
            150.779998779 165.729995728 150.160003662 return
          </CharString>
          <CharString index="349">
            rmoveto
            -52.3399963379 -35.8999938965 34.9799957275 132.149993896 return
          </CharString>
          <CharString index="350">
            -137.960006714 68.6399993896 -104.850006104 return
          </CharString>
          <CharString index="351">
            rmoveto
            24 callgsubr
            return
          </CharString>
          <CharString index="352">
            150.050003052 -119.379989624 159 return
          </CharString>
          <CharString index="353">
            125.380004883 97.1199951172 120 return
          </CharString>
          <CharString index="354">
            -20 -20 callgsubr
            return
          </CharString>
          <CharString index="355">
            vhcurveto
            270 callsubr
            return
          </CharString>
          <CharString index="356">
            -67.9199981689 return
          </CharString>
          <CharString index="357">
            126.460006714 return
          </CharString>
          <CharString index="358">
            64.3399963379 return
          </CharString>
          <CharString index="359">
            -175.720001221 return
          </CharString>
          <CharString index="360">
            112.979995728 287.230010986 -20 hstem
            298 callsubr
            162.63999939 250 callgsubr
            vstem
            493.729995728 return
          </CharString>
          <CharString index="361">
            -20 36.6000061035 -20 hstemhm
            return
          </CharString>
          <CharString index="362">
            hlineto
            -77.0200042725 -33.2100067139 -6.97999572754 -16.1100006104 -37.2400054932 hvcurveto
            27.8300018311 -106.25 return
          </CharString>
          <CharString index="363">
            -267 127 callgsubr
            hstem
            91.9600067139 390 callgsubr
            return
          </CharString>
          <CharString index="364">
            174 21 -21 226.539993286 95.6699981689 209.150009155 -20 return
          </CharString>
          <CharString index="365">
            42.5 return
          </CharString>
          <CharString index="366">
            716.5 return
          </CharString>
          <CharString index="367">
            -155.759994507 return
          </CharString>
          <CharString index="368">
            64.8500061035 hlineto
            66.5599975586 32.4199981689 -26.6600036621 -48.3000030518 -42.3200073242 -36.7899932861 return
          </CharString>
          <CharString index="369">
            -25 callsubr
            hstemhm
            return
          </CharString>
          <CharString index="370">
            vstem
            279 750 rmoveto
            -30 -20 -20 -30 hvcurveto
            -496 -169 vlineto
            300 -298 300 298 rlineto
            -169 496 hlineto
            30 -20 20 -30 vhcurveto
            return
          </CharString>
          <CharString index="371">
            vstem
            920 387 rmoveto
            30 -20 20 -30 vhcurveto
            -532 176 hlineto
            -298 -300 298 -300 rlineto
            176 532 vlineto
            411 callsubr
            return
          </CharString>
          <CharString index="372">
            -20 hstemhm
            37.0899963379 137 callsubr
            179.020004272 158 return
          </CharString>
          <CharString index="373">
            148 callsubr
            hstem
            51.5 296.5 vstem
            348 return
          </CharString>
          <CharString index="374">
            83.5 136.5 76 return
          </CharString>
          <CharString index="375">
            vmoveto
            117 callsubr
            return
          </CharString>
          <CharString index="376">
            vlineto
            129.410003662 95.6399993896 return
          </CharString>
          <CharString index="377">
            35.4600067139 return
          </CharString>
          <CharString index="378">
            143 callgsubr
            64.5099945068 59 callgsubr
            hintmask 00000000
            hintmask 11100100
            204.5 return
          </CharString>
          <CharString index="379">
            vstem
            441 -12 rmoveto
            411 callsubr
            496 169 vlineto
            -300 298 -300 -298 rlineto
            169 -496 hlineto
            -30 20 -20 30 vhcurveto
            return
          </CharString>
          <CharString index="380">
            rlineto
            24.0200042725 31.6600036621 39.6600036621 23 58.8800048828 hhcurveto
            70.8999938965 41.5899963379 return
          </CharString>
          <CharString index="381">
            vlineto
            489 callgsubr
            114.11000061 72.8300018311 162 149.979995728 -102.619995117 71.7400054932 return
          </CharString>
          <CharString index="382">
            208 callsubr
            127 77 60.5 217 callgsubr
            return
          </CharString>
          <CharString index="383">
            84 200 callgsubr
            84 hstem
            58 284 vstem
            58 return
          </CharString>
          <CharString index="384">
            hstem
            39 279.850006104 vstem
            318.850006104 return
          </CharString>
          <CharString index="385">
            rmoveto
            -164.490005493 return
          </CharString>
          <CharString index="386">
            hmoveto
            -50 callsubr
            return
          </CharString>
          <CharString index="387">
            161.059997559 return
          </CharString>
          <CharString index="388">
            -14.6300048828 return
          </CharString>
          <CharString index="389">
            51.5500030518 return
          </CharString>
          <CharString index="390">
            662.5 return
          </CharString>
          <CharString index="391">
            4.08999633789 hvcurveto
            -347.070007324 hlineto
            -3.24000549316 -16.8699951172 -2.25 -21.3600006104 return
          </CharString>
          <CharString index="392">
            92.5 158 91 hstem
            59.5 108.5 139.5 108.5 vstem
            238 return
          </CharString>
          <CharString index="393">
            239 rmoveto
            -30 20 -20 30 vhcurveto
            532 -176 hlineto
            298 300 -298 300 rlineto
            -176 -532 vlineto
            -30 -20 -20 -30 hvcurveto
            return
          </CharString>
          <CharString index="394">
            6 20.9900054932 -21 242.080001831 106.740005493 219.539993286 247 callsubr
            158 vstem
            return
          </CharString>
          <CharString index="395">
            -31.3399963379 -28.6000061035 -58.5700073242 hvcurveto
            endchar
          </CharString>
          <CharString index="396">
            -123.850006104 353 callgsubr
            232.220001221 108.36000061 119.330001831 113.089996338 hstem
            return
          </CharString>
          <CharString index="397">
            -26 -67 callgsubr
            111.61000061 122.409988403 95.3999938965 123.540008545 112.36000061 return
          </CharString>
          <CharString index="398">
            -42 35 callgsubr
            122.960006714 191.350006104 115.36000061 177.939987183 119.710006714 return
          </CharString>
          <CharString index="399">
            rmoveto
            125 callgsubr
            return
          </CharString>
          <CharString index="400">
            -12 -3 -32 -9 -26 vvcurveto
            -33 50 -29 93 vhcurveto
            2 5 -44 53 4 1 39 -33 45 -28 64 -22 rlinecurve
            67 -24 53 -17 13 -17 rrcurveto
            return
          </CharString>
          <CharString index="401">
            -43 35 callgsubr
            121.100006104 202.210006714 117.220001221 167.699996948 119.089996338 return
          </CharString>
          <CharString index="402">
            -67 callgsubr
            113.479995728 249.339996338 109.100006104 122.419998169 301 callgsubr
            hstem
            return
          </CharString>
          <CharString index="403">
            -20 hstem
            30.0899963379 158 142.660003662 158 vstem
            return
          </CharString>
          <CharString index="404">
            -32.6000061035 -72.3200073242 hvcurveto
            endchar
          </CharString>
          <CharString index="405">
            21.3200073242 154.88999939 return
          </CharString>
          <CharString index="406">
            163 callgsubr
            -100.220001221 return
          </CharString>
          <CharString index="407">
            -58 callgsubr
            54 callsubr
            return
          </CharString>
          <CharString index="408">
            158.5 return
          </CharString>
          <CharString index="409">
            168.5 return
          </CharString>
          <CharString index="410">
            -157.369995117 return
          </CharString>
          <CharString index="411">
            -183 21 326 callgsubr
            return
          </CharString>
          <CharString index="412">
            36.2100067139 34.9600067139 44.4600067139 43.8300018311 -36.2100067139 34.9600067139 return
          </CharString>
          <CharString index="413">
            19.3600006104 -279.440002441 rlineto
            104.490005493 hlineto
            19.3600006104 279.440002441 rlineto
            endchar
          </CharString>
          <CharString index="414">
            -20 callgsubr
            89 callgsubr
            vstem
            return
          </CharString>
          <CharString index="415">
            336 callgsubr
            -87 callsubr
            return
          </CharString>
          <CharString index="416">
            536.5 -20 hstem
            -42 callsubr
            return
          </CharString>
          <CharString index="417">
            63.2100067139 133 124.979995728 return
          </CharString>
          <CharString index="418">
            317 callsubr
            rmoveto
            return
          </CharString>
          <CharString index="419" raw="1">
            f7330a13 98f74b0a d51dffff c380000b
          </CharString>
          <CharString index="420">
            50.5 40 41 200 callgsubr
            200 callgsubr
            -40 40.5 -50.5 hvcurveto
            return
          </CharString>
          <CharString index="421">
            24.0399932861 -29.2899932861 -64.1499938965 hvcurveto
            return
          </CharString>
          <CharString index="422">
            115.229995728 return
          </CharString>
          <CharString index="423">
            153.509994507 return
          </CharString>
          <CharString index="424">
            758.710006714 return
          </CharString>
          <CharString index="425">
            -31.2100067139 32.1699981689 258 callgsubr
            rlineto
            hintmask 10111000
            -1.33000183105 12.6399993896 return
          </CharString>
          <CharString index="426">
            128.050003052 140.150009155 -20 hstem
            206.11000061 147.770004272 vstem
            353.880004883 return
          </CharString>
          <CharString index="427">
            -64 -112.100006104 928.440002441 hstem
            73.2400054932 373.509994507 vstem
            446.75 return
          </CharString>
          <CharString index="428">
            0 380 callgsubr
            451.63999939 247 callsubr
            158 165.770004272 158 vstem
            return
          </CharString>
          <CharString index="429">
            -39.6300048828 -25.1300048828 -28.4499969482 -19.6900024414 -37.1999969482 hhcurveto
            endchar
          </CharString>
          <CharString index="430">
            92.6600036621 158 hstemhm
            return
          </CharString>
          <CharString index="431">
            118.960006714 8 callgsubr
            219.529998779 469 callsubr
            vstem
            return
          </CharString>
          <CharString index="432">
            vhcurveto
            -372.380004883 vmoveto
            -7.2200012207 -6.86999511719 0.259994506836 0.600006103516 return
          </CharString>
          <CharString index="433">
            -20 58 43 21 43 -23 54 hstemhm
            460 41 101 12 54 207 callsubr
            -20.5 35 7 50 return
          </CharString>
          <CharString index="434">
            -75.6999969482 -30.9799957275 -59.8500061035 return
          </CharString>
          <CharString index="435">
            160.130004883 -137.619995117 351 callgsubr
            return
          </CharString>
          <CharString index="436">
            337 callsubr
            179.779998779 179.770004272 return
          </CharString>
          <CharString index="437">
            95.6699981689 207.63999939 468 callsubr
            return
          </CharString>
          <CharString index="438">
            464 callgsubr
            280 callsubr
            return
          </CharString>
          <CharString index="439">
            25.7100067139 152.88999939 rlineto
            return
          </CharString>
          <CharString index="440">
            -20 85 389 callsubr
            return
          </CharString>
          <CharString index="441">
            104 callgsubr
            95 callgsubr
            return
          </CharString>
          <CharString index="442">
            -15 callgsubr
            -158 return
          </CharString>
          <CharString index="443">
            -42 callsubr
            hvcurveto
            return
          </CharString>
          <CharString index="444">
            121.699996948 return
          </CharString>
          <CharString index="445">
            121.210006714 return
          </CharString>
          <CharString index="446">
            32.2100067139 -110.720001221 rcurveline
            288.960006714 59.1699981689 131.789993286 return
          </CharString>
          <CharString index="447">
            127.88999939 37.4499969482 56.8999938965 94.1199951172 vvcurveto
            101.619995117 return
          </CharString>
          <CharString index="448">
            0 103.75 409 callsubr
            101.13999939 412 callgsubr
            468 callsubr
            return
          </CharString>
          <CharString index="449">
            88.7599945068 rlineto
            47 callsubr
            return
          </CharString>
          <CharString index="450">
            hlineto
            37.4700012207 21.4900054932 22.8300018311 18.8500061035 37.1000061035 return
          </CharString>
          <CharString index="451">
            187 callsubr
            85 148 callsubr
            211 callgsubr
            hintmask 00000000
            return
          </CharString>
          <CharString index="452">
            85.4499969482 68.3399963379 31.8500061035 42.2400054932 52.6300048828 return
          </CharString>
          <CharString index="453">
            -123.86000061 120.460006714 198.849990845 108.979995728 160.700012207 return
          </CharString>
          <CharString index="454">
            -65.6600036621 -48.2400054932 -20.1300048828 -35.1000061035 -40.0500030518 return
          </CharString>
          <CharString index="455">
            -31.6600036621 -46.5599975586 -65.0599975586 -36.6000061035 -39.3899993896 return
          </CharString>
          <CharString index="456">
            hstem
            182 112.5 vstem
            271 callgsubr
            return
          </CharString>
          <CharString index="457">
            hlineto
            -30 -20 -20 -30 hvcurveto
            -625 vlineto
            -30 20 -20 30 vhcurveto
            return
          </CharString>
          <CharString index="458">
            16.6000061035 return
          </CharString>
          <CharString index="459">
            151.020004272 return
          </CharString>
          <CharString index="460">
            79 -38.5 rlineto
            29 16 13 15 24 hhcurveto
            hintmask 11100110
            -1 callsubr
            return
          </CharString>
          <CharString index="461">
            266 0 118.949996948 223.729995728 113.86000061 236.810012817 -20 return
          </CharString>
          <CharString index="462">
            192 0 111.470001221 163.459991455 106.369995117 187.050018311 -20 return
          </CharString>
          <CharString index="463">
            -158 -414.63999939 -136.899993896 414.63999939 -158 45 callsubr
            return
          </CharString>
          <CharString index="464">
            258 callsubr
            28.5 -13.5 21 -19 15 hvcurveto
            26.5 return
          </CharString>
          <CharString index="465">
            158 411.149993896 221 callgsubr
            return
          </CharString>
          <CharString index="466">
            -158 -451.63999939 -165.770004272 451.63999939 -158 -57 callgsubr
            return
          </CharString>
          <CharString index="467">
            404 callsubr
            hlineto
            endchar
          </CharString>
          <CharString index="468">
            7.42999267578 30.6000061035 return
          </CharString>
          <CharString index="469">
            -154.880004883 -261.339996338 return
          </CharString>
          <CharString index="470">
            215.869995117 111.630004883 return
          </CharString>
          <CharString index="471">
            -78.3399963379 170 callgsubr
            return
          </CharString>
          <CharString index="472">
            379.320007324 vstem
            return
          </CharString>
          <CharString index="473">
            -200.339996338 -21 return
          </CharString>
          <CharString index="474">
            hstemhm
            -8 callgsubr
            hintmask 00000000
            return
          </CharString>
          <CharString index="475">
            -36.9799957275 vhcurveto
            hintmask 11101000
            196 callsubr
            return
          </CharString>
          <CharString index="476">
            116.339996338 203.570007324 468 callsubr
            146.149993896 158 vstem
            return
          </CharString>
          <CharString index="477">
            -27 49 rlineto
            4 vlineto
            6 1 21 3 13 3 1 4 rcurveline
            -33 35 -46 15 0 vvcurveto
            -1 -4 rlineto
            return
          </CharString>
          <CharString index="478">
            96 callsubr
            rlineto
            return
          </CharString>
          <CharString index="479">
            -20 hstem
            66 callsubr
            vstem
            return
          </CharString>
          <CharString index="480">
            46.2100067139 -35.8500061035 34.8500061035 -47.8300018311 vhcurveto
            endchar
          </CharString>
          <CharString index="481">
            hstem
            30 344.710006714 vstem
            201.789993286 return
          </CharString>
          <CharString index="482">
            42 -42 187 callsubr
            85 148 callsubr
            return
          </CharString>
          <CharString index="483">
            -35 -44 -90 callgsubr
            return
          </CharString>
          <CharString index="484">
            221.880004883 return
          </CharString>
          <CharString index="485">
            228.619995117 return
          </CharString>
          <CharString index="486">
            112.839996338 return
          </CharString>
          <CharString index="487">
            hlineto
            180 callsubr
            return
          </CharString>
          <CharString index="488">
            119.710006714 272.439987183 -20 8 callgsubr
            return
          </CharString>
          <CharString index="489">
            -2 9 -1 9 8 vvcurveto
            33 12 26 1 2 vhcurveto
            51 26 5 7 rlineto
            0 -16 5 -24 vhcurveto
            return
          </CharString>
          <CharString index="490">
            -210.009994507 154.88999939 vlineto
            endchar
          </CharString>
          <CharString index="491">
            242 84 rmoveto
            25 13 77 110 116 hhcurveto
            46 51 -15 -8 22 hvcurveto
            1 -4 rlineto
            return
          </CharString>
          <CharString index="492">
            35 callgsubr
            114.729995728 369.640014648 114.710006714 hstem
            return
          </CharString>
          <CharString index="493">
            390 callsubr
            302 callsubr
            -21 return
          </CharString>
          <CharString index="494">
            110 hstem
            30 344.5 vstem
            202 return
          </CharString>
          <CharString index="495">
            hstem
            -12.4600067139 606.649993896 vstem
            return
          </CharString>
          <CharString index="496">
            -20 hstem
            248 callgsubr
            return
          </CharString>
          <CharString index="497">
            -245.5 98 return
          </CharString>
          <CharString index="498">
            -24 -67 callgsubr
            return
          </CharString>
          <CharString index="499">
            151.5 return
          </CharString>
          <CharString index="500">
            115.960006714 return
          </CharString>
          <CharString index="501">
            565.550003052 return
          </CharString>
          <CharString index="502">
            hstem
            62 158 return
          </CharString>
          <CharString index="503">
            -165.509994507 282.009994507 259 callgsubr
            116.509994507 return
          </CharString>
          <CharString index="504">
            434 callsubr
            rmoveto
            40.5 80 -220 125 -60 -119 rlineto
            return
          </CharString>
          <CharString index="505">
            -228.960006714 -194.490005493 76.9400024414 -131.509994507 return
          </CharString>
          <CharString index="506">
            127.460006714 -67.7299957275 78.5800018311 -124.960006714 return
          </CharString>
          <CharString index="507">
            116 callsubr
            42.4199981689 282 callsubr
            return
          </CharString>
          <CharString index="508">
            -7 21 146 callsubr
            return
          </CharString>
          <CharString index="509">
            658.5 rmoveto
            -97.5 61 -463 -698 97 -61 rlineto
            return
          </CharString>
          <CharString index="510">
            rmoveto
            -116.830001831 66.3000030518 return
          </CharString>
          <CharString index="511">
            73 callsubr
            137 callgsubr
            return
          </CharString>
          <CharString index="512">
            -38.6600036621 -81.5299987793 hvcurveto
            return
          </CharString>
          <CharString index="513">
            464 callgsubr
            137 callsubr
            return
          </CharString>
          <CharString index="514">
            hstemhm
            54.5099945068 -28 callgsubr
            return
          </CharString>
          <CharString index="515">
            35 -80 callgsubr
            return
          </CharString>
          <CharString index="516">
            160.830001831 return
          </CharString>
          <CharString index="517">
            114.25 return
          </CharString>
          <CharString index="518">
            30 20 20 30 hvcurveto
            return
          </CharString>
          <CharString index="519">
            33.6399993896 return
          </CharString>
          <CharString index="520">
            -172.5 return
          </CharString>
          <CharString index="521">
            92.4100036621 return
          </CharString>
          <CharString index="522">
            90.5 return
          </CharString>
          <CharString index="523">
            117.960006714 return
          </CharString>
          <CharString index="524">
            142.5 return
          </CharString>
          <CharString index="525">
            440 callsubr
            hintmask 10111100
            return
          </CharString>
          <CharString index="526">
            173 callgsubr
            hstemhm
            return
          </CharString>
          <CharString index="527">
            -61.5 338 callgsubr
            hvcurveto
            176 callsubr
            -46 rlineto
            return
          </CharString>
          <CharString index="528">
            -138.910003662 150.509994507 138.910003662 vlineto
            endchar
          </CharString>
          <CharString index="529" raw="1">
            16f8620a 0b  
          </CharString>
          <CharString index="530">
            569.270004272 rlineto
            return
          </CharString>
          <CharString index="531">
            -486.63999939 vmoveto
            return
          </CharString>
          <CharString index="532">
            -15 callgsubr
            rmoveto
            return
          </CharString>
          <CharString index="533">
            -52.9299926758 hvcurveto
            -48.4900054932 hlineto
            -19.2200012207 return
          </CharString>
          <CharString index="534">
            hvcurveto
            43.3200073242 103.119995117 rlineto
            19.2400054932 return
          </CharString>
          <CharString index="535">
            -37.6300048828 hvcurveto
            -85.75 -83.1300048828 rlineto
            return
          </CharString>
          <CharString index="536">
            hstem
            98.1100006104 212.740005493 vstem
            310.850006104 return
          </CharString>
          <CharString index="537">
            0 76 callgsubr
            297.520004272 435 callsubr
            hstem
            return
          </CharString>
          <CharString index="538">
            -36 -35 -44 336 callgsubr
            return
          </CharString>
          <CharString index="539">
            33.2100067139 469 callsubr
            return
          </CharString>
          <CharString index="540">
            -67 callgsubr
            113.470001221 return
          </CharString>
          <CharString index="541">
            751.5 return
          </CharString>
          <CharString index="542">
            117.339996338 return
          </CharString>
          <CharString index="543">
            18.1300048828 return
          </CharString>
          <CharString index="544">
            20.3000030518 return
          </CharString>
          <CharString index="545">
            158.759994507 return
          </CharString>
          <CharString index="546">
            158 494 callsubr
            158 hintmask 11011100
            372.880004883 return
          </CharString>
          <CharString index="547">
            460 callsubr
            142.289993286 158 return
          </CharString>
          <CharString index="548">
            -85.0800018311 107.979995728 -167.039993286 vhcurveto
            return
          </CharString>
          <CharString index="549">
            47.0800018311 78.5200042725 vvcurveto
            135.580001831 return
          </CharString>
          <CharString index="550">
            0 118.970001221 213.380004883 113.839996338 return
          </CharString>
          <CharString index="551">
            113.100006104 hstem
            142.440002441 158.059997559 return
          </CharString>
          <CharString index="552">
            437 callsubr
            508 callgsubr
            return
          </CharString>
          <CharString index="553">
            -47.7599945068 vhcurveto
            -34.5500030518 -104.619995117 return
          </CharString>
          <CharString index="554">
            73 callsubr
            109 239 callgsubr
            hlineto
            endchar
          </CharString>
          <CharString index="555">
            168 callgsubr
            hstemhm
            528 callgsubr
            545 callsubr
            return
          </CharString>
          <CharString index="556">
            145.289993286 166.36000061 166.490005493 return
          </CharString>
          <CharString index="557">
            87.8500061035 -83.8699951172 105.240005493 return
          </CharString>
          <CharString index="558">
            231 callsubr
            271 callgsubr
            187 callsubr
            return
          </CharString>
          <CharString index="559">
            109.740005493 -69.2200012207 47.3899993896 return
          </CharString>
          <CharString index="560">
            110.440002441 137.279998779 143.630004883 return
          </CharString>
          <CharString index="561">
            147 callsubr
            hstem
            62 158 vstem
            return
          </CharString>
          <CharString index="562">
            40.3600006104 92.6799926758 25.7599945068 return
          </CharString>
          <CharString index="563">
            81.1499938965 -58.5099945068 48.7299957275 return
          </CharString>
          <CharString index="564">
            533 callgsubr
            231.369995117 return
          </CharString>
          <CharString index="565">
            -51.5500030518 537 callgsubr
            return
          </CharString>
          <CharString index="566">
            460.5 306 hstemhm
            30.5 169 return
          </CharString>
          <CharString index="567">
            522 callsubr
            158 return
          </CharString>
          <CharString index="568">
            84.1600036621 110 return
          </CharString>
          <CharString index="569" raw="1">
            311d6768 0b  
          </CharString>
          <CharString index="570">
            vstem
            -64 callgsubr
            return
          </CharString>
          <CharString index="571">
            118.339996338 hstem
            return
          </CharString>
          <CharString index="572">
            -50 callsubr
            rmoveto
            return
          </CharString>
          <CharString index="573">
            100.869995117 return
          </CharString>
          <CharString index="574">
            106.36000061 return
          </CharString>
          <CharString index="575">
            -20 395 callsubr
            return
          </CharString>
          <CharString index="576">
            170.11000061 return
          </CharString>
          <CharString index="577">
            100.5 return
          </CharString>
          <CharString index="578">
            66.75 return
          </CharString>
          <CharString index="579">
            160.580001831 return
          </CharString>
          <CharString index="580">
            -45.6999969482 return
          </CharString>
          <CharString index="581">
            -584 742 16 -8 -20 hstemhm
            -8 16 hintmask 00000000
            hintmask 01100000
            return
          </CharString>
          <CharString index="582">
            0 21 22 21 7 vhcurveto
            -38 24 -15 14 -10 vhcurveto
            6 hlineto
            return
          </CharString>
          <CharString index="583">
            125.25 hstem
            601.5 136 vstem
            return
          </CharString>
          <CharString index="584">
            hstemhm
            62 158 return
          </CharString>
          <CharString index="585">
            hintmask 01011000
            -17.4600067139 498.149993896 rmoveto
            return
          </CharString>
          <CharString index="586">
            -187 -135.100006104 658.190002441 hstem
            return
          </CharString>
          <CharString index="587">
            -20 307 callgsubr
            return
          </CharString>
          <CharString index="588">
            77 -15 -20 525 callsubr
            217 callgsubr
            return
          </CharString>
          <CharString index="589">
            91 hhcurveto
            83.5 312 callgsubr
            return
          </CharString>
          <CharString index="590">
            71.1499938965 -40.4600067139 rlineto
            endchar
          </CharString>
          <CharString index="591">
            -12 146 443 136 hstem
            return
          </CharString>
          <CharString index="592">
            158 hstemhm
            33.2100067139 return
          </CharString>
          <CharString index="593">
            215 311 callsubr
            return
          </CharString>
          <CharString index="594">
            82 258 callgsubr
            81 hstemhm
            return
          </CharString>
          <CharString index="595">
            64.5200042725 return
          </CharString>
          <CharString index="596">
            447.039993286 return
          </CharString>
          <CharString index="597">
            110 0 -20 hstemhm
            return
          </CharString>
          <CharString index="598">
            537.449996948 return
          </CharString>
          <CharString index="599">
            103.759994507 return
          </CharString>
          <CharString index="600">
            262.5 return
          </CharString>
          <CharString index="601">
            142.279998779 return
          </CharString>
          <CharString index="602">
            145.699996948 return
          </CharString>
          <CharString index="603">
            414.86000061 return
          </CharString>
          <CharString index="604">
            179.5 return
          </CharString>
          <CharString index="605">
            179 hstem
            30 187 vstem
            123.5 return
          </CharString>
          <CharString index="606">
            hstem
            377.600006104 144.789993286 vstem
            return
          </CharString>
          <CharString index="607">
            -22 27 23 -13 27 hhcurveto
            9 10 1 4 10 hvcurveto
            return
          </CharString>
          <CharString index="608">
            55.6199951172 79 vvcurveto
            94.2299957275 return
          </CharString>
          <CharString index="609">
            191 189 191 return
          </CharString>
          <CharString index="610">
            392 callgsubr
            rmoveto
            return
          </CharString>
          <CharString index="611">
            -230.149993896 vlineto
            return
          </CharString>
          <CharString index="612">
            -261.990005493 86 return
          </CharString>
          <CharString index="613">
            -113 39 81 -21 29 -21 148 38 12 return
          </CharString>
          <CharString index="614">
            42 callsubr
            hstem
            69 422 vstem
            69 return
          </CharString>
          <CharString index="615">
            rmoveto
            535 callgsubr
            return
          </CharString>
          <CharString index="616">
            hstem
            187.960006714 -30 callgsubr
            return
          </CharString>
          <CharString index="617">
            381.300003052 rmoveto
            187.050003052 return
          </CharString>
          <CharString index="618">
            121.580001831 446.779998779 -20 return
          </CharString>
          <CharString index="619">
            rlineto
            43.4900054932 -50.25 return
          </CharString>
          <CharString index="620">
            -62.3000030518 hvcurveto
            0.309997558594 return
          </CharString>
          <CharString index="621">
            103.619995117 220.790008545 -20 return
          </CharString>
          <CharString index="622">
            -21 421.130004883 -32 callsubr
            return
          </CharString>
          <CharString index="623">
            hstem
            -40 callsubr
            54 callsubr
            return
          </CharString>
          <CharString index="624">
            hhcurveto
            -159.169998169 -116.729995728 return
          </CharString>
          <CharString index="625">
            385 -12 208 callsubr
            127 77 return
          </CharString>
          <CharString index="626">
            56.7200012207 83.7100067139 vvcurveto
            return
          </CharString>
          <CharString index="627">
            rmoveto
            -60.7200012207 -40.8099975586 return
          </CharString>
          <CharString index="628">
            456.539993286 rmoveto
            236.809997559 return
          </CharString>
          <CharString index="629">
            -20 263 callgsubr
            return
          </CharString>
          <CharString index="630">
            hintmask 10101100000000011011110010000000
            return
          </CharString>
          <CharString index="631">
            598.559997559 return
          </CharString>
          <CharString index="632">
            95.5 return
          </CharString>
          <CharString index="633">
            117.089996338 return
          </CharString>
          <CharString index="634">
            116.970001221 return
          </CharString>
          <CharString index="635">
            -73.8699951172 return
          </CharString>
          <CharString index="636">
            116.100006104 return
          </CharString>
          <CharString index="637">
            32.0800018311 return
          </CharString>
          <CharString index="638">
            451.86000061 return
          </CharString>
          <CharString index="639">
            -43.5299987793 -35.8099975586 return
          </CharString>
          <CharString index="640">
            50.9299926758 251 callsubr
            return
          </CharString>
          <CharString index="641">
            78.9499969482 78.9400024414 return
          </CharString>
          <CharString index="642">
            -53.0599975586 100.36000061 return
          </CharString>
          <CharString index="643">
            -67 callgsubr
            115.470001221 return
          </CharString>
          <CharString index="644">
            479 rmoveto
            -400 173.5 return
          </CharString>
          <CharString index="645">
            35.2899932861 -28.0399932861 return
          </CharString>
          <CharString index="646">
            23.2100067139 158.130004883 return
          </CharString>
          <CharString index="647">
            -37.2899932861 28.8099975586 return
          </CharString>
          <CharString index="648">
            -60.9600067139 -48.7899932861 return
          </CharString>
          <CharString index="649">
            90.8699951172 94.8500061035 return
          </CharString>
          <CharString index="650">
            -55.1300048828 -31.3399963379 return
          </CharString>
          <CharString index="651">
            94 callsubr
            301 callgsubr
            return
          </CharString>
          <CharString index="652">
            158 hintmask 00000000
            return
          </CharString>
        <CharString name=".notdef">
          82 -217 52 213 72 283 48 191 52 hstemhm
          123 55 102 70 -60 50 41 54 54 54 hintmask 0000000000000000
          hintmask 1011101110000000
          543 -217 rmoveto
          911 -420 -911 vlineto
          55 859 rmoveto
          311 -807 -311 hlineto
          146 616 rmoveto
          -39 -54 -12 -27 -13 9 -10 15 4 4 1 2 5 hvcurveto
          8 17 14 3 21 hhcurveto
          50 11 -30 -39 -53 -19 -20 -72 -4 hvcurveto
          -84 vlineto
          -15 12 -9 13 12 13 9 15 vhcurveto
          45 vlineto
          67 10 28 38 70 vvcurveto
          60 -25 55 -86 vhcurveto
          hintmask 1111110110000000
          -9 -331 rmoveto
          -20 -15 -15 -20 -21 15 -16 20 20 15 16 21 20 -15 15 -20 hvcurveto
          endchar
        </CharString>
        <CharString name="A">
          -53 callsubr
          93 callsubr
          hintmask 11011000
          394.570007324 149.339996338 -100 callsubr
          hintmask 11101000
          27 callgsubr
        </CharString>
        <CharString name="AE">
          91 callsubr
          812.429992676 118.339996338 -33 callsubr
        </CharString>
        <CharString name="AEacute">
          91 callsubr
          381 434 callsubr
          93 callgsubr
          471.429992676 -713.160003662 -33 callsubr
        </CharString>
        <CharString name="Aacute">
          -53 callsubr
          93 callsubr
          hintmask 11011000
          193.5 434 callsubr
          93 callgsubr
          241.070007324 -682.160003662 -100 callsubr
          hintmask 11101000
          27 callgsubr
        </CharString>
        <CharString name="Abreve">
          -53 callsubr
          77.1399993896 110 93 callsubr
          hintmask 11011100
          295 -74 callgsubr
          99.5700073242 -601.160003662 -100 callsubr
          hintmask 11101100
          27 callgsubr
        </CharString>
        <CharString name="Acircumflex">
          -53 callsubr
          93 callsubr
          hintmask 11011000
          163 754.5 rmoveto
          132.5 84.5 -69 callsubr
          rlineto
          288.570007324 -670.160003662 -100 callsubr
          hintmask 11101000
          27 callgsubr
        </CharString>
        <CharString name="Adieresis">
          -53 callsubr
          93.6399993896 158 hstemhm
          98 162 70 -25 callgsubr
          hintmask 11011110
          497 callsubr
          767 -104 callgsubr
          -15.9299926758 -617.660003662 -100 callsubr
          hintmask 11101110
          27 callgsubr
        </CharString>
        <CharString name="Agrave">
          -53 callsubr
          93 callsubr
          hintmask 11011000
          388.5 397 callsubr
          245.570007324 -688.160003662 -100 callsubr
          hintmask 11101000
          27 callgsubr
        </CharString>
        <CharString name="Alpha">
          -53 callsubr
          93 callsubr
          hintmask 11011000
          394.570007324 149.339996338 -100 callsubr
          hintmask 11101000
          27 callgsubr
        </CharString>
        <CharString name="Alphatonos">
          -53 callsubr
          20.1399993896 -20 hstemhm
          -58.5 662.229995728 hintmask 11001100
          43 467 rmoveto
          87 226.5 -151 31 -37.5 -240.5 rlineto
          453.070007324 -334.660003662 rmoveto
          35.6900024414 -149.339996338 rlineto
          173.470001221 hlineto
          hintmask 11010100
          -75 callgsubr
          35.4700012207 149.339996338 rlineto
          173.929992676 118.710006714 rmoveto
          -145.740005493 hlineto
          hintmask 11100100
          27 callgsubr
        </CharString>
        <CharString name="Amacron">
          -53 callsubr
          105.13999939 262 callsubr
          417 callsubr
          88 callsubr
          hintmask 00000000
          hintmask 11011100
          448 778.5 146 callgsubr
          252.070007324 -629.160003662 -100 callsubr
          hintmask 11101100
          27 callgsubr
        </CharString>
        <CharString name="Aogonek">
          6 386 callsubr
          149.339996338 118.720001221 305.830001831 119.470001221 0 -20 hstemhm
          288.5 137 callgsubr
          hintmask 11101100
          603.729995728 hmoveto
          -75 callgsubr
          35.4700012207 149.339996338 rlineto
          202.309997559 hlineto
          29.3600006104 -122.86000061 rlineto
          -83.3200073242 -34.0099945068 -52.1100006104 -48.1799926758 -73.2899932861 -74 callsubr
          20 callgsubr
          hvcurveto
          -153.809997559 268.059997559 rmoveto
          -145.729995728 hlineto
          hintmask 11110100
          72.6300048828 305.830001831 rlineto
          endchar
        </CharString>
        <CharString name="Aring">
          -53 callsubr
          57.1399993896 487 callsubr
          157 94 90 94 hintmask 11011111
          296 730.5 84 callgsubr
          98.5700073242 -762.660003662 -100 callsubr
          hintmask 11101111
          27 callgsubr
        </CharString>
        <CharString name="Atilde">
          -53 callsubr
          87.6399993896 129 callgsubr
          -13.3099975586 617.039993286 hintmask 11010110
          239.5 805.5 rmoveto
          hintmask 11011010
          -1 callsubr
          -77 callsubr
          hintmask 11010110
          0 callgsubr
          -61 callsubr
          155.070007324 -656.160003662 -100 callsubr
          hintmask 11100110
          27 callgsubr
        </CharString>
        <CharString name="B">
          -80 callsubr
        </CharString>
        <CharString name="Beta">
          -80 callsubr
        </CharString>
        <CharString name="C">
          32 callsubr
          345.36000061 710.339996338 -99 callgsubr
        </CharString>
        <CharString name="CR">
          -347 endchar
        </CharString>
        <CharString name="Cacute">
          32 callsubr
          491.5 -45 callsubr
          93.8600006104 -41.1600036621 -99 callgsubr
        </CharString>
        <CharString name="Cacute.loclPLK">
          32 callsubr
          495.5 98 callsubr
          -7.63999938965 -31.1600036621 -99 callgsubr
        </CharString>
        <CharString name="Ccaron">
          32 callsubr
          543.5 -3 callgsubr
          -56.6399993896 -39.1600036621 -99 callgsubr
        </CharString>
        <CharString name="Ccedilla">
          -9 505 callsubr
          181.800003052 -21 23.3300018311 -21 601.619995117 121.589996338 332 callgsubr
          167.940002441 226 callgsubr
          hintmask 10111100
          28 callgsubr
          -212.910003662 102.160003662 -124.5 157.529998779 -23.5700073242 hvcurveto
          -12.3899993896 -99.1300048828 rlineto
          -49 callsubr
          hintmask 11011100
          196 callgsubr
          32.8000030518 vlineto
          80.1699981689 8.57000732422 63.4799957275 38.1999969482 40.2400054932 40.8999938965 rrcurveto
          endchar
        </CharString>
        <CharString name="Ccircumflex">
          32 callsubr
          353.5 839 rmoveto
          -69 callsubr
          57 -65 rlineto
          124.36000061 -44.1600036621 -99 callgsubr
        </CharString>
        <CharString name="Cdotaccent">
          -9 -67 callgsubr
          126.690002441 479.049987793 121.580001831 47.1600036621 179 hstem
          33.2100067139 171.350006104 55.4399871826 187 vstem
          353.5 936.5 rmoveto
          -99 callsubr
          -8.13999938965 -226.160003662 -99 callgsubr
        </CharString>
        <CharString name="Chi">
          -3 144 callgsubr
          -4.35000610352 589.779998779 vstem
          585.429992676 hmoveto
          -200.039993286 373.869995117 -19 callgsubr
          endchar
        </CharString>
        <CharString name="D">
          67 0 118.580001831 455.809997559 324 callsubr
          64.5099945068 212 callsubr
          -58 callgsubr
          208.580001831 vlineto
          177.020004272 168.149993896 70.7299957275 201 callgsubr
          -38.2200012207 449 callgsubr
          -47.25 477 callgsubr
        </CharString>
        <CharString name="Dcaron">
          67 0 118.589996338 455.800003052 324 callsubr
          485.5 -3 callgsubr
          -279.490005493 -56.1499938965 rmoveto
          -58 callgsubr
          208.580001831 vlineto
          177.020004272 168.149993896 70.7400054932 201 callgsubr
          -38.2299957275 449 callgsubr
          -47.2400054932 477 callgsubr
        </CharString>
        <CharString name="Dcroat">
          12 callsubr
        </CharString>
        <CharString name="Delta">
          86 callsubr
        </CharString>
        <CharString name="E">
          -56 callsubr
          57 callsubr
          472.580001831 575.63999939 244 callsubr
          -89 callsubr
        </CharString>
        <CharString name="Eacute">
          -56 callsubr
          57 callsubr
          416.5 -45 callsubr
          296.080001831 -175.86000061 244 callsubr
          -89 callsubr
        </CharString>
        <CharString name="Ebreve">
          -56 callsubr
          57.1499938965 110 57 callsubr
          278 -74 callgsubr
          194.580001831 -174.86000061 244 callsubr
          -89 callsubr
        </CharString>
        <CharString name="Ecaron">
          -56 callsubr
          57 callsubr
          468.5 -3 callgsubr
          145.580001831 -173.86000061 244 callsubr
          -89 callsubr
        </CharString>
        <CharString name="Ecircumflex">
          -56 callsubr
          57 callsubr
          278.5 839 rmoveto
          -69 callsubr
          57 -65 rlineto
          326.580001831 -178.86000061 244 callsubr
          -89 callsubr
        </CharString>
        <CharString name="Edieresis">
          -56 callsubr
          73.6499938965 158 230 callgsubr
          -147.119995117 162 70 118 callsubr
          hintmask 11110110
          163 925 -107 callgsubr
          78.5800018311 -349.36000061 244 callsubr
          hintmask 11101000
          -89 callsubr
        </CharString>
        <CharString name="Edotaccent">
          -56 callsubr
          64.1499938965 179 230 callgsubr
          -43.6199951172 187 hintmask 00000000
          hintmask 11110100
          278.5 936.5 rmoveto
          -99 callsubr
          194.080001831 -360.86000061 244 callsubr
          hintmask 11101000
          -89 callsubr
        </CharString>
        <CharString name="Egrave">
          -56 callsubr
          57 callsubr
          412 -8 callsubr
          101.080001831 -175.86000061 244 callsubr
          -89 callsubr
        </CharString>
        <CharString name="Emacron">
          -56 callsubr
          85.1499938965 109.5 230 callgsubr
          -103.119995117 88 callsubr
          hintmask 00000000
          hintmask 11110100
          224 callsubr
          778.5 -52 callsubr
          347.080001831 -312.36000061 244 callsubr
          hintmask 11111000
          -89 callsubr
        </CharString>
        <CharString name="Eng">
          79 366 callsubr
          242.339996338 -21 530.080001831 -20 183.279998779 247 callsubr
          200 callsubr
          240.250015259 200 callsubr
          vstem
          524 callsubr
          212 callsubr
          -146.899993896 -280.740005493 hlineto
          -110.149993896 13.4900054932 -91.3200073242 11.3399963379 -49 vhcurveto
          -4 hlineto
          -202.910003662 531.210006714 rlineto
          -205.070007324 -58 callgsubr
          200 callsubr
          337 callgsubr
          128.619995117 -14.2200012207 90.7200012207 -10.6100006104 57 vhcurveto
          4 hlineto
          198.660003662 -530.080001831 rlineto
          61.4499969482 hlineto
          -11.1100006104 -64.0700073242 -36.1900024414 -23.1399993896 -65.9400024414 -28.5399932861 47.4100036621 -105.589996338 rcurveline
          322 callgsubr
        </CharString>
        <CharString name="Eogonek">
          -58 518 callgsubr
          118.350006104 176.209991455 315 callsubr
          165.850006104 117.710006714 230 callgsubr
          -10.6199951172 137 callgsubr
          hintmask 01111000
          378 callsubr
          118.339996338 rmoveto
          176.220001221 213.320007324 315 callsubr
          -213.320007324 165.850006104 243.960006714 vlineto
          24 callgsubr
          -425.300003052 -58 callgsubr
          hlineto
          hintmask 11110100
          235.600006104 hlineto
          -51.6300048828 -31.5700073242 -30.4799957275 -41.3699951172 -56.0599975586 -74 callsubr
          20 callgsubr
          hvcurveto
          40.2100067139 118.339996338 hlineto
          endchar
        </CharString>
        <CharString name="Epsilon">
          -56 callsubr
          57 callsubr
          472.580001831 575.63999939 244 callsubr
          -89 callsubr
        </CharString>
        <CharString name="Epsilontonos">
          -56 callsubr
          57 callsubr
          -87 callsubr
          73 callgsubr
          515.080001831 108.63999939 244 callsubr
          -89 callsubr
        </CharString>
        <CharString name="Eta">
          8 callsubr
          437.050003052 296.850006104 -24 callsubr
        </CharString>
        <CharString name="Etatonos">
          82 21 -21 296.850006104 303 callgsubr
          268.699996948 -20 20.1399993896 -20 hstemhm
          67 callgsubr
          hintmask 11011100
          -87 callsubr
          73 callgsubr
          479.550003052 -170.149993896 rmoveto
          -296.850006104 -30 callgsubr
          vlineto
          hintmask 11101100
          -59 callgsubr
          122 callgsubr
          -268.699996948 -208.429992676 268.699996948 -164.119995117 51 callsubr
          296.850006104 vlineto
          endchar
        </CharString>
        <CharString name="Eth">
          12 callsubr
        </CharString>
        <CharString name="Euro">
          -49 callgsubr
        </CharString>
        <CharString name="Euro.osf">
          -49 callgsubr
        </CharString>
        <CharString name="Euro.tf">
          391 callsubr
          114.979995728 131.800003052 82.1600036621 71.3199920654 82.5500030518 130.529998779 113.979995728 hstem
          91.3300018311 159 vstem
          442.169998169 229.789993286 rmoveto
          20.8500061035 82.1699981689 rlineto
          -212.679992676 71.3200073242 227.940002441 hlineto
          21.2299957275 82.5500030518 rlineto
          -243.059997559 hlineto
          91.7899932861 21.6000061035 315 callgsubr
          38.7400054932 67.0200042725 hhcurveto
          49.7700042725 38.6300048828 -12.7599945068 -26.5099945068 43.6399993896 hvcurveto
          49.6999969482 96 rlineto
          32.6399993896 -48.7799987793 -59.2400054932 24.6100006104 -82.0800018311 hhcurveto
          -136.259994507 -108.039993286 -88.75 260 callsubr
          -38.1399993896 hvcurveto
          -65.8500061035 79 callgsubr
          85.6799926758 hlineto
          -159.020004272 31.3699951172 97.4400024414 -87.7599945068 149.789993286 hhcurveto
          60.5099945068 47.25 286 callgsubr
          -46.1199951172 -18.1300048828 -53.6399993896 hhcurveto
          -76.9600067139 -43.8500061035 37.4499969482 94.3500061035 -17.1000061035 hvcurveto
          endchar
        </CharString>
        <CharString name="Euro.tosf">
          -24 35 callgsubr
          114.979995728 121.800003052 82.1699981689 71.3200073242 82.5500030518 119.770004272 113.979995728 hstem
          107.080001831 159 vstem
          442.830001831 219.789993286 rmoveto
          20.8500061035 82.1699981689 rlineto
          -197.589996338 71.3200073242 212.850006104 hlineto
          21.2299957275 82.5500030518 rlineto
          -227.009994507 hlineto
          81.8899993896 23.0399932861 47.5899963379 37.8800048828 61.1300048828 hhcurveto
          45.2899932861 34.75 -12.7599945068 -26.5099945068 40.5299987793 hvcurveto
          55.9299926758 96 rlineto
          32.6399993896 -48.7799987793 -55.3699951172 24.6100006104 -78.2100067139 hhcurveto
          -138.050003052 -109.669998169 -88.1600036621 -145.600006104 -38.6699981689 hvcurveto
          -66.25 79 callgsubr
          85.9499969482 hlineto
          -149.490005493 31.8099975586 99.2200012207 -87.2899932861 151.63999939 hhcurveto
          56.6399993896 43.3800048828 286 callgsubr
          -45.3600006104 -18.1300048828 -49.7799987793 hhcurveto
          -73.9100036621 -45.1999969482 36.8200073242 84.9700012207 -19.1000061035 hvcurveto
          endchar
        </CharString>
        <CharString name="F">
          -97 20.9900054932 -21 274.979995728 435 callsubr
          183.330001831 117.710006714 57 callsubr
          460.600006104 575.63999939 244 callsubr
          -413.320007324 300 callsubr
          274.979995728 202.589996338 435 callsubr
          -202.589996338 183.320007324 hlineto
          endchar
        </CharString>
        <CharString name="G">
          61 -67 callgsubr
          107 callgsubr
          236 callsubr
          363.830001831 710.339996338 -84 callsubr
          endchar
        </CharString>
        <CharString name="Gamma">
          154 callgsubr
        </CharString>
        <CharString name="Gbreve">
          61 -67 callgsubr
          107 callgsubr
          40.1599884033 110 236 callsubr
          497 callgsubr
          -74 callgsubr
          12.3300018311 -40.1600036621 -84 callsubr
          endchar
        </CharString>
        <CharString name="Gcircumflex">
          61 -67 callgsubr
          107 callgsubr
          236 callsubr
          497 callgsubr
          839 rmoveto
          -69 callsubr
          57 -65 rlineto
          144.830001831 -44.1600036621 -84 callsubr
          endchar
        </CharString>
        <CharString name="Gcommaaccent">
          61 -189 -21 193.020004272 107 callgsubr
          hstemhm
          432 callsubr
          66.1699981689 158 13.2599945068 438 callsubr
          hintmask 11111010
          363.830001831 710.339996338 -84 callsubr
          hintmask 11111110
          -15.3300018311 -777.839996338 -103 callgsubr
        </CharString>
        <CharString name="Gdotaccent">
          61 -67 callgsubr
          107 callgsubr
          47.1599884033 179 hstemhm
          432 callsubr
          54.6799926758 187 -4.25 438 callsubr
          hintmask 00000000
          hintmask 11111100
          497 callgsubr
          936.5 rmoveto
          -99 callsubr
          12.3300018311 -226.160003662 rmoveto
          -183.63999939 -146.979995728 -128.36000061 -234.490005493 -237.380004883 105.38999939 -127.089996338 209.61000061 hvcurveto
          hintmask 11101010
          90.7700042725 90.0599975586 27.1100006104 45.7200012207 70.4700012207 hvcurveto
          342.960006714 -264.36000061 vlineto
          15.9799957275 -115.61000061 rlineto
          89.6199951172 -157.190002441 hlineto
          -15.5299987793 -28.4100036621 -31.0599975586 -7.13000488281 -34.1699981689 hhcurveto
          -96.0899963379 -47.6999969482 61.6999969482 181.809997559 171.869995117 71.6000061035 72.5099945068 97.1300048828 56.3999938965 37.8800048828 -17.6199951172 -37.1300048828 44.2700042725 hvcurveto
          85.8800048828 88.5099945068 rlineto
          hintmask 11111100
          50.2400054932 -57.1300048828 -75.0500030518 35.1000061035 -100.479995728 hhcurveto
          endchar
        </CharString>
        <CharString name="H">
          8 callsubr
          437.050003052 296.850006104 -24 callsubr
        </CharString>
        <CharString name="Hbar">
          93 21 -21 297 127.5 75.3999938965 92.0399932861 -92.0399932861 193.600006104 hstemhm
          70.5 164 208.5 164 hintmask 11011100
          664.210006714 499.899993896 rmoveto
          hintmask 11101100
          92.0399932861 -57.2100067139 418 callgsubr
          -208.5 418 callgsubr
          -57.2899932861 vlineto
          hintmask 11011100
          -92.0399932861 57.2899932861 -499.899993896 164 297 208.5 -297 164 499.899993896 vlineto
          -164 hmoveto
          -75.3999938965 -208.5 75.3999938965 vlineto
          endchar
        </CharString>
        <CharString name="Hcircumflex">
          8 callsubr
          333 839 rmoveto
          -69 callsubr
          57 -65 rlineto
          236.550003052 -457.649993896 -24 callsubr
        </CharString>
        <CharString name="I">
          31 callgsubr
          229 hmoveto
          -27 callsubr
        </CharString>
        <CharString name="IJ">
          27 37 callgsubr
          20.1399993896 175 callsubr
          89 callgsubr
          156.5 164 hintmask 10111000
          549.5 693.5 rmoveto
          -164 -582.5 hlineto
          -82.5 -13 -47 -89.5 -34.5 vhcurveto
          43.5 259 callgsubr
          rlineto
          117.5 38 105.5 61.5 175.5 vvcurveto
          -320.5 -105.5 rmoveto
          hintmask 11011000
          -27 callsubr
        </CharString>
        <CharString name="Iacute">
          135 callgsubr
        </CharString>
        <CharString name="Ibreve">
          161 callsubr
          77.1399993896 110 307 callsubr
          146 -74 callgsubr
          83 -750.5 rmoveto
          -27 callsubr
        </CharString>
        <CharString name="Icircumflex">
          31 callgsubr
          146.5 839 rmoveto
          -69 callsubr
          57 -65 rlineto
          215 -754.5 rmoveto
          -27 callsubr
        </CharString>
        <CharString name="Idieresis">
          -290 442 callgsubr
          -50.5 162 -46.9900054932 89 callgsubr
          -47.5 118 callsubr
          hintmask 11110100
          31 925 -107 callgsubr
          hintmask 11101000
          -33 -925 rmoveto
          -27 callsubr
        </CharString>
        <CharString name="Idotaccent">
          161 callsubr
          84.1399993896 179 hstemhm
          53 187 -175.490005493 89 callgsubr
          488 callgsubr
          146.5 936.5 rmoveto
          -99 callsubr
          hintmask 11101000
          82.5 -936.5 rmoveto
          -27 callsubr
        </CharString>
        <CharString name="Igrave">
          31 callgsubr
          280 -8 callsubr
          -10.5 -751.5 rmoveto
          -27 callsubr
        </CharString>
        <CharString name="Imacron">
          121 callgsubr
        </CharString>
        <CharString name="Iogonek">
          -290 386 callsubr
          -59 callgsubr
          -20 hstemhm
          -31 137 callgsubr
          -17.9900054932 89 callgsubr
          hintmask 11101000
          229 693.36000061 278 callsubr
          -685.63999939 hlineto
          hintmask 11110000
          -59.7100067139 -32.4700012207 -35.8000030518 -43.5 -60.75 111 callgsubr
          28.5 hlineto
          endchar
        </CharString>
        <CharString name="Iota">
          31 callgsubr
          229 hmoveto
          -27 callsubr
        </CharString>
        <CharString name="Iotadieresis">
          -290 442 callgsubr
          -50.5 162 -46.9900054932 89 callgsubr
          -47.5 118 callsubr
          hintmask 11110100
          31 925 -107 callgsubr
          hintmask 11101000
          -33 -925 rmoveto
          -27 callsubr
        </CharString>
        <CharString name="Iotatonos">
          161 callsubr
          20.1399993896 175 callsubr
          89 callgsubr
          hintmask 10110000
          -87 callsubr
          73 callgsubr
          271.5 -467 rmoveto
          hintmask 11010000
          -27 callsubr
        </CharString>
        <CharString name="Itilde">
          161 callsubr
          87.6399993896 129 callgsubr
          64.5099945068 89 callgsubr
          hintmask 00000000
          hintmask 11101000
          207.5 761 rmoveto
          -77 callsubr
          hintmask 11011000
          0 callgsubr
          -61 callsubr
          hintmask 11101000
          -1 callsubr
          hintmask 11011000
          207 callsubr
          -761 rmoveto
          -27 callsubr
        </CharString>
        <CharString name="J">
          256 callsubr
          256.070007324 693.36000061 34 callgsubr
        </CharString>
        <CharString name="Jcircumflex">
          256 callsubr
          174 839 rmoveto
          -69 callsubr
          57 -65 rlineto
          214.570007324 -61.1399993896 34 callgsubr
        </CharString>
        <CharString name="K">
          97 callgsubr
        </CharString>
        <CharString name="Kappa">
          97 callgsubr
        </CharString>
        <CharString name="Kcommaaccent">
          49 -189 -21 231 -21 693.36000061 -20 230 callgsubr
          17.8800048828 158 hintmask 11110000
          405.509994507 382.089996338 rmoveto
          221.149993896 311.270004272 rlineto
          -172.759994507 hlineto
          -219.660003662 -323.490005493 220.949996948 -369.869995117 rlineto
          189.850006104 hlineto
          -416.419998169 425 callgsubr
          161 callgsubr
          vlineto
          hintmask 11111000
          260.990005493 -67.5 -103 callgsubr
        </CharString>
        <CharString name="L">
          -71 0 129.699996948 563.660003662 -20 57 callsubr
          378 callsubr
          129.699996948 rmoveto
          70 callgsubr
          endchar
        </CharString>
        <CharString name="Lacute">
          -71 0 129.699996948 563.660003662 -20 57 callsubr
          284.5 -45 callsubr
          184.119995117 -621.800003052 rmoveto
          70 callgsubr
          endchar
        </CharString>
        <CharString name="Lambda">
          6 21 -21 573.880004883 119.479995728 0 -20 93 callsubr
          hintmask 10110000
          603.729995728 hmoveto
          -75 callgsubr
          hintmask 11010000
          136.919998169 573.880004883 136.550003052 -573.880004883 rlineto
          endchar
        </CharString>
        <CharString name="Lcaron">
          -71 0 129.699996948 562.800003052 -20 20.8600006104 -20 412 callsubr
          -20 230 callgsubr
          hintmask 00000000
          hintmask 11001000
          424.5 692.5 rmoveto
          hintmask 10011000
          296 callgsubr
          81 -8 rlineto
          -148.380004883 -347.800003052 rmoveto
          hintmask 10101000
          70 callgsubr
          endchar
        </CharString>
        <CharString name="Lcommaaccent">
          -71 -189 -21 210 129.699996948 563.660003662 -20 230 callgsubr
          -33.1199951172 158 hintmask 11110000
          378 callsubr
          129.699996948 rmoveto
          70 callgsubr
          hintmask 11101000
          -224.669998169 -197.199996948 -103 callgsubr
        </CharString>
        <CharString name="Ldot">
          -71 0 129.699996948 178.800003052 179 205.86000061 -20 8 callgsubr
          76.3800048828 187 vstem
          378 callsubr
          129.699996948 rmoveto
          70 callgsubr
          -100.669998169 357.800003052 rmoveto
          -99 callsubr
          endchar
        </CharString>
        <CharString name="Lslash">
          -31 0 218 callgsubr
          564 -20 hstem
          104 164.5 vstem
          539 218 callgsubr
          rmoveto
          -270.5 196.729995728 hlineto
          181.589996338 112.38999939 -54.1900024414 86.1499938965 -127.399993896 -78.7899932861 rlineto
          247.520004272 -164.5 -349.25 vlineto
          -95.6999969482 -59.1399993896 53.5599975586 -86.7700042725 42.1300048828 26.0700073242 rlineto
          -224.410003662 417.5 vlineto
          endchar
        </CharString>
        <CharString name="M">
          -63 callsubr
        </CharString>
        <CharString name="Mu">
          -63 callsubr
        </CharString>
        <CharString name="N">
          13 callsubr
          524 callsubr
          hmoveto
          -64 callsubr
        </CharString>
        <CharString name="Nacute">
          13 callsubr
          474 -45 callsubr
          364.559997559 -751.5 rmoveto
          -64 callsubr
        </CharString>
        <CharString name="Nacute.loclPLK">
          13 callsubr
          478 98 callsubr
          263.059997559 -741.5 rmoveto
          -64 callsubr
        </CharString>
        <CharString name="Ncaron">
          13 callsubr
          526 -3 callgsubr
          214.059997559 -749.5 rmoveto
          -64 callsubr
        </CharString>
        <CharString name="Ncommaaccent">
          79 -189 -21 210 154.679992676 -133.679992676 -21 537.059997559 156.300003052 0 175 callsubr
          200 callsubr
          43.0800170898 158 39.1699981689 200 callsubr
          hintmask 10101111
          524 callsubr
          hmoveto
          157 callgsubr
          hintmask 11001111
          -110.149993896 13.4900054932 -91.3200073242 8.85000610352 -56.4700012207 vhcurveto
          -205.169998169 538.679992676 rlineto
          -204.320007324 -58 callgsubr
          200 callsubr
          337 callgsubr
          hintmask 10110111
          128.619995117 -13.6000061035 91.4700012207 -8.11999511719 63.2299957275 vhcurveto
          200.300003052 -537.059997559 rlineto
          -56.5 -67.5 -103 callgsubr
        </CharString>
        <CharString name="Ntilde">
          79 0 154.679992676 -133.679992676 -21 537.059997559 156.300003052 0 -20 87.6399993896 129 callgsubr
          64.5099945068 200 callsubr
          240.250015259 200 callsubr
          hintmask 00000000
          hintmask 01011011
          397 761 rmoveto
          -77 callsubr
          hintmask 01010111
          0 callgsubr
          -61 callsubr
          hintmask 01011011
          -1 callsubr
          hintmask 01010111
          201.559997559 -761 rmoveto
          157 callgsubr
          hintmask 10010111
          -110.149993896 13.4900054932 -91.3200073242 8.85000610352 -56.4700012207 vhcurveto
          -205.169998169 538.679992676 rlineto
          -204.320007324 -58 callgsubr
          200 callsubr
          337 callgsubr
          hintmask 01100111
          128.619995117 -13.6000061035 91.4700012207 -8.11999511719 63.2299957275 vhcurveto
          200.300003052 -537.059997559 rlineto
          endchar
        </CharString>
        <CharString name="Nu">
          13 callsubr
          524 callsubr
          hmoveto
          -64 callsubr
        </CharString>
        <CharString name="O">
          107 -16.9799957275 120.339996338 486.649993896 120.330001831 hstem
          33.1999969482 171.36000061 281.619995117 171.36000061 vstem
          345.369995117 710.339996338 -107 callsubr
        </CharString>
        <CharString name="OE">
          325 35 callgsubr
          120.339996338 -103.349990845 103.369995117 -103.369995117 118.339996338 176.220001221 315 callsubr
          165.840011597 117.720001221 -103.350006104 103.350006104 -103.350006104 120.330001831 332 callgsubr
          261.619995117 167.470001221 hintmask 0011100110000000
          821.369995117 294.559997559 rmoveto
          315 callsubr
          -187.720001221 vlineto
          -8.0299987793 62.8899993896 -20.4499969482 57.0800018311 -32.9400024414 45.8699951172 rrcurveto
          279.779998779 hlineto
          17.2299957275 117.720001221 rlineto
          -441.11000061 hlineto
          hintmask 1001001110000000
          11.2400054932 -29.5500030518 -33.5399932861 5.74000549316 -35.7799987793 hhcurveto
          -178.929992676 -21 callsubr
          -231 117.130004883 -132.720001221 178.929992676 hvcurveto
          hintmask 0011100110000000
          34.0099945068 32.2100067139 5.60000610352 11.3800048828 28.7100067139 hvcurveto
          444.949996948 118.339996338 -300.240005493 hlineto
          36.0899963379 47.7299957275 22.1100006104 61.5 7.5299987793 67 rrcurveto
          hintmask 0101010110000000
          -299.259994507 -191.210006714 rmoveto
          -80.8300018311 -49.9799957275 68.0399932861 175.339996338 175.339996338 48.8500061035 67.9299926758 81.9600067139 83.0899963379 47.7200012207 -67.9299926758 238 callgsubr
          -175.710006714 -47.2299957275 -68.0399932861 -83.5800018311 hvcurveto
          endchar
        </CharString>
        <CharString name="Oacute">
          -13 callsubr
          484.5 -45 callsubr
          466 callsubr
          -41.1600036621 -107 callsubr
        </CharString>
        <CharString name="Oacute.loclPLK">
          -13 callsubr
          488.5 98 callsubr
          -0.630004882812 -31.1600036621 -107 callsubr
        </CharString>
        <CharString name="Obreve">
          -26 callgsubr
          40.1600036621 110 50 callsubr
          346.5 -74 callgsubr
          -1.13000488281 -40.1600036621 -107 callsubr
        </CharString>
        <CharString name="Ocircumflex">
          -13 callsubr
          346.5 839 rmoveto
          -69 callsubr
          57 -65 rlineto
          131.369995117 -44.1600036621 -107 callsubr
        </CharString>
        <CharString name="Odieresis">
          -26 callgsubr
          56.6600036621 158 332 callgsubr
          -55.0599975586 162 70 -25 callgsubr
          -56.8200073242 171.36000061 523 callgsubr
          231 925 -107 callgsubr
          hintmask 11110010
          -116.630004883 -214.660003662 -107 callsubr
        </CharString>
        <CharString name="Ograve">
          -13 callsubr
          480 -8 callsubr
          -94.1300048828 -41.1600036621 -107 callsubr
        </CharString>
        <CharString name="Ohm">
          -36 callgsubr
        </CharString>
        <CharString name="Ohungarumlaut">
          -13 callsubr
          409.5 935.5 -71 callsubr
          -117.130004883 -41.1600036621 -107 callsubr
        </CharString>
        <CharString name="Omacron">
          -26 callgsubr
          68.1600036621 109.5 332 callgsubr
          -11.0599975586 88 callsubr
          -12.8200073242 171.36000061 hintmask 00000000
          hintmask 11101000
          193.5 778.5 -52 callsubr
          hintmask 11110100
          151.869995117 -177.660003662 -107 callsubr
        </CharString>
        <CharString name="Omega">
          -36 callgsubr
        </CharString>
        <CharString name="Omegatonos">
          173 callgsubr
          -16.8399963379 -20 hstemhm
          33.2100067139 171.350006104 -150.360015869 142 callsubr
          hintmask 00000000
          hintmask 10110010
          148 callsubr
          73 callgsubr
          hintmask 11010010
          345.880004883 243.339996338 269 callgsubr
          -142.830001831 -190.229995728 -126.320007324 44.9600067139 -83.7299957275 86.8800048828 -48.6300048828 hvcurveto
          hintmask 11001010
          141 callgsubr
          hintmask 11010010
          -82.8800048828 37.8500061035 -19.7400054932 71.6300048828 155.429992676 vvcurveto
          141.679992676 48.8500061035 71.0399932861 91.9600067139 93.1000061035 47.7100067139 -71.0399932861 -141.300003052 -150.529998779 -17.0899963379 -77.7700042725 -85.9100036621 -36.9799957275 vhcurveto
          hintmask 11010100
          196 callsubr
          -113.11000061 vlineto
          hintmask 11010010
          299 callgsubr
          43.4499969482 82.9799957275 124.429992676 vvcurveto
          192.119995117 -115.240005493 140.559997559 -196.929992676 vhcurveto
          endchar
        </CharString>
        <CharString name="Omicron">
          107 -16.9799957275 120.339996338 486.649993896 120.330001831 hstem
          33.1999969482 171.36000061 281.619995117 171.36000061 vstem
          345.369995117 710.339996338 -107 callsubr
        </CharString>
        <CharString name="Omicrontonos">
          -26 callgsubr
          -16.8399963379 -20 344 callgsubr
          415 callsubr
          73 callgsubr
          hintmask 11011000
          341.869995117 243.339996338 -107 callsubr
        </CharString>
        <CharString name="Oslash">
          107 -67 callgsubr
          120.350006104 -96.3100128174 -21 603.949996948 120.330001831 -2.94999694824 -20 hstemhm
          33.2100067139 171.36000061 281.619995117 171.36000061 hintmask 10101100
          554.770004272 794.88999939 rmoveto
          -123.199996948 32.8300018311 rlineto
          hintmask 10011100
          -37.1699981689 -120.330001831 rlineto
          hintmask 01101100
          1.96000671387 -15.7299957275 -16.3500061035 0.990005493164 -16.9400024414 hhcurveto
          -195.039993286 -21 callsubr
          -153.199996948 51.5200042725 -109.970001221 91.5899963379 -56.6999969482 hvcurveto
          252 callgsubr
          -128.509994507 123.210006714 -32.8300018311 36.3000030518 120.529998779 226 callsubr
          226.759994507 153.740005493 -51.5500030518 109.800003052 -91.9199981689 56.3800048828 hvcurveto
          -168.699996948 -77.0299987793 rmoveto
          10.5599975586 9.9700012207 -0.589996337891 -1.32000732422 9.38999938965 hvcurveto
          -132.410003662 -440.119995117 rlineto
          -25.1300048828 35.7299957275 -13.1900024414 61.4400024414 101.600006104 vvcurveto
          175.339996338 48.8500061035 67.9199981689 91.9600067139 vhcurveto
          424 callsubr
          -10.5099945068 -9.9700012207 0.610000610352 1.38999938965 -9.41000366211 hvcurveto
          132.419998169 441.300003052 rlineto
          25.4100036621 -35.4799957275 12.8699951172 -61.5399932861 -102.520004272 vvcurveto
          252 callsubr
          -47.2200012207 -68.0399932861 -93.5899963379 vhcurveto
          endchar
        </CharString>
        <CharString name="Oslashacute">
          -67 callsubr
        </CharString>
        <CharString name="Oslashacute.001">
          -67 callsubr
        </CharString>
        <CharString name="Otilde">
          -26 callgsubr
          50.6600036621 112 -67.5 112.5 367 callsubr
          hintmask 11101100
          407.5 761 rmoveto
          -77 callsubr
          hintmask 11011100
          0 callgsubr
          -61 callsubr
          hintmask 11101100
          -1 callsubr
          hintmask 11011100
          -62.1300048828 -50.6600036621 -107 callsubr
        </CharString>
        <CharString name="P">
          -46 callgsubr
        </CharString>
        <CharString name="Phi">
          259 0 173.440002441 -97.9100036621 97.9100036621 345.13999939 97.9100036621 -97.9100036621 174.779998779 hstemhm
          16.3200073242 166.479995728 438 callsubr
          159.25 -152.279998779 449 callsubr
          hintmask 00000000
          hintmask 01101101
          826.679992676 349.490005493 rmoveto
          165.570007324 -128.190002441 91.6100006104 -197.679992676 9.82000732422 vhcurveto
          hintmask 10011101
          354 callgsubr
          -8.58000183105 -130.949996948 -91.7200012207 -171.289993286 vvcurveto
          -167.830001831 127.919998169 -91.6600036621 197.320007324 -9.97999572754 vhcurveto
          hintmask 10011101
          -75.5299987793 159.240005493 vlineto
          hintmask 01011101
          75.3699951172 vlineto
          hintmask 01101101
          194.63999939 8.39999389648 131.229995728 91.8099975586 173.910003662 vvcurveto
          hintmask 10011011
          -332.850006104 169.089996338 rmoveto
          226 callgsubr
          -8.17999267578 51.8600006104 -63.1600036621 -97.75 vvcurveto
          -99.4499969482 -48.5500030518 -67.1600036621 -117.809997559 -9.44000244141 vhcurveto
          -311.020004272 171.559997559 rmoveto
          hintmask 10101011
          99.8500061035 48.3699951172 64.3000030518 117.36000061 9.36000061035 vhcurveto
          -345.070007324 vlineto
          hintmask 10011011
          -114.059997559 8.36999511719 -51.6699981689 63.2200012207 99.9700012207 vvcurveto
          endchar
        </CharString>
        <CharString name="Pi">
          134 callgsubr
        </CharString>
        <CharString name="Psi">
          144 37 callgsubr
          hstemhm
          19.4299926758 414 callgsubr
          104.630020142 54 callsubr
          -157.130004883 150.149993896 111.979995728 414 callgsubr
          hintmask 11101100
          708.190002441 212 callsubr
          -157.509994507 -267.210006714 hlineto
          -74.3300018311 -33.4400024414 -41.8200073242 -78.5399932861 -13.9900054932 vhcurveto
          397.350006104 -150.149993896 -398.169998169 vlineto
          -80.9600067139 13.6199951172 -30.6499938965 42.0200042725 75.3200073242 vvcurveto
          267.210006714 -157.509994507 -264.25 vlineto
          hintmask 11110100
          -139.410003662 85.9400024414 -86.4400024414 176.199996948 -21.1900024414 vhcurveto
          -182.070007324 54 callsubr
          182.710006714 vlineto
          172.550003052 21.1399993896 89.9600067139 88.6199951172 137.770004272 vvcurveto
          endchar
        </CharString>
        <CharString name="Q">
          106 -13.7299957275 58.3300018311 -58.3300018311 526 callsubr
          486.63999939 120.339996338 344 callgsubr
          494.559997559 44.6000061035 rmoveto
          85.5500030518 47.8899993896 77.4299926758 86.8699951172 167.75 vvcurveto
          231.380004883 -116.75 131.850006104 -195.419998169 -195.039993286 -21 callsubr
          vhcurveto
          hintmask 01111000
          -231 117.130004883 -129.470001221 184.949996948 129.36000061 71.9400024414 -60.9799957275 -71.8699951172 64.3000030518 vhcurveto
          hintmask 10111000
          98.7400054932 128.559997559 rlineto
          40.2299957275 -55.2299957275 -59.6199951172 22.3899993896 -90.2100067139 hhcurveto
          hintmask 01111000
          -290 302.130004883 rmoveto
          175.339996338 48.8500061035 67.9299926758 91.9600067139 93.1000061035 47.7100067139 -67.9299926758 238 callgsubr
          396 callgsubr
          -90.8300018311 -49.9799957275 68.0399932861 175.339996338 vhcurveto
          endchar
        </CharString>
        <CharString name="R">
          115 callgsubr
          292.820007324 264.600006104 -38 callgsubr
        </CharString>
        <CharString name="Racute">
          115 callgsubr
          205 434 callsubr
          93 callgsubr
          127.820007324 -566.899993896 -38 callgsubr
        </CharString>
        <CharString name="Rcaron">
          115 callgsubr
          259 749.5 rmoveto
          96.5 hlineto
          141.5 218 callgsubr
          -56.5 65 -133.5 -84 -132.5 84 -57 -65 rlineto
          175.320007324 -614.399993896 -38 callgsubr
        </CharString>
        <CharString name="Rcommaaccent">
          33 466 callgsubr
          264.600006104 113.470001221 199.569992065 115.720001221 hstemhm
          27 callsubr
          4.38000488281 158 16.75 471 callgsubr
          hintmask 11111010
          619.850006104 hmoveto
          -175.86000061 294.600006104 rlineto
          89.9100036621 41.9600067139 42.7200012207 54.2799987793 91.3300018311 vvcurveto
          143.940002441 -96.2299957275 67.25 -188.809997559 vhcurveto
          -227.080001831 51 callsubr
          264.600006104 64.1999969482 hlineto
          142.419998169 -264.600006104 rlineto
          -206.619995117 378.070007324 rmoveto
          199.570007324 59.4700012207 vlineto
          80.6199951172 39.0399932861 -28.7799987793 -66.6999969482 -73.0700073242 -38.1900024414 -31.0200042725 -71.0899963379 hvcurveto
          hintmask 11110110
          13.5299987793 -445.580001831 -103 callgsubr
        </CharString>
        <CharString name="Rho">
          -46 callgsubr
        </CharString>
        <CharString name="S">
          6 callgsubr
          288.050003052 465 callgsubr
          -104 callsubr
          46 callgsubr
          endchar
        </CharString>
        <CharString name="Sacute">
          6 callgsubr
          433 -45 callsubr
          95.0500030518 -41.1600036621 rmoveto
          -104 callsubr
          46 callgsubr
          endchar
        </CharString>
        <CharString name="Sacute.loclPLK">
          6 callgsubr
          437 98 callsubr
          -6.44999694824 -31.1600036621 rmoveto
          -104 callsubr
          46 callgsubr
          endchar
        </CharString>
        <CharString name="Scaron">
          6 callgsubr
          485 -3 callgsubr
          -55.4499969482 -39.1600036621 rmoveto
          -104 callsubr
          46 callgsubr
          endchar
        </CharString>
        <CharString name="Scedilla">
          -12 -262 86 160.520004272 120.080001831 -99.0800018311 -21 22.5299987793 -21 603.949996948 120.339996338 hstemhm
          38.0599975586 168.600006104 107.339996338 226 callgsubr
          -51.7599945068 170.600006104 hintmask 10011101
          547.339996338 201.960006714 rmoveto
          127.63999939 -75.3200073242 54.8300018311 -130.550003052 41.4700012207 vhcurveto
          -108.429992676 34.2700042725 -26.3800048828 17.4100036621 44.3000030518 vvcurveto
          44.2100067139 36.3200073242 23.9100036621 57.1699981689 55.7599945068 48 -18.6300048828 -39.6399993896 47.5099945068 vhcurveto
          77.0399932861 89.2700042725 rlineto
          57.6000061035 -61.1199951172 -73.6999969482 31.7400054932 -105.580001831 hhcurveto
          -143.809997559 -106.190002441 -78.3600006104 -122.190002441 -103.270004272 56.9199981689 -63.4499969482 155.169998169 -48.4700012207 hvcurveto
          hintmask 11001101
          100.809997559 -31.0200042725 25.7799987793 -22.5299987793 -50.8099975586 vvcurveto
          -53.7400054932 -42.1000061035 -31.8999938965 249 callsubr
          -68.7799987793 -56 25.75 43.7599945068 -48.8699951172 vhcurveto
          -83.6399993896 -92.1300048828 rlineto
          hintmask 10101110
          50.8000030518 -49.3500061035 73.4100036621 -39.9900054932 100.419998169 -8.11999511719 -12.0599975586 -96.5200042725 rcurveline
          -49 callsubr
          hintmask 10011110
          196 callgsubr
          34.0500030518 vlineto
          hintmask 10011101
          140.339996338 16.7200012207 82 84.25 114.940002441 vvcurveto
          endchar
        </CharString>
        <CharString name="Scircumflex">
          6 callgsubr
          295 839 rmoveto
          -69 callsubr
          57 -65 rlineto
          125.550003052 -44.1600036621 rmoveto
          -104 callsubr
          46 callgsubr
          endchar
        </CharString>
        <CharString name="Scommaaccent">
          -12 -189 -21 193.020004272 121.580001831 485.38999939 120.339996338 hstemhm
          38.0500030518 168.61000061 -1.16000366211 158 13.2299957275 170.600006104 hintmask 11101000
          288.050003052 465 callgsubr
          hintmask 11110100
          -104 callsubr
          hintmask 11101000
          46 callgsubr
          -3.55000305176 -777.839996338 -103 callgsubr
        </CharString>
        <CharString name="Sigma">
          -81 0 121.589996338 452.050003052 119.710006714 hstem
          21.3200073242 460.36000061 vstem
          481.679992676 573.63999939 rmoveto
          119.710006714 -460.36000061 -119.089996338 vlineto
          192.11000061 -234.63999939 -192.11000061 -220.529998779 rlineto
          -119.100006104 460.36000061 121.589996338 -281.130004883 vlineto
          169.490005493 187.169998169 rlineto
          65.7299957275 vlineto
          -167.630004883 199.149993896 rlineto
          endchar
        </CharString>
        <CharString name="T">
          28 callsubr
        </CharString>
        <CharString name="Tau">
          28 callsubr
        </CharString>
        <CharString name="Tbar">
          -43 20 -21 298.070007324 415 callgsubr
          176.509994507 126.5 hstem
          188 164 vstem
          352 566 rmoveto
          170.5 hlineto
          17 126.5 rlineto
          -530.5 -126.5 179 -176.509994507 -114.949996948 -92.4199981689 114.949996948 -298.070007324 164 298.070007324 115.11000061 415 callgsubr
          -115.11000061 hlineto
          endchar
        </CharString>
        <CharString name="Tcaron">
          -44 277 callgsubr
          187.960006714 164.119995117 vstem
          460 -3 callgsubr
          204.029998779 -182.600006104 rmoveto
          17 callsubr
          298 callgsubr
          hlineto
          endchar
        </CharString>
        <CharString name="Tcedilla">
          -44 -262 86 197 197 callsubr
          hstemhm
          187.960006714 164.039993286 -10 226 callgsubr
          hintmask 11110000
          352 hmoveto
          0.0700073242188 225 callgsubr
          rlineto
          170.460006714 hlineto
          17 callsubr
          hlineto
          hintmask 11101000
          76.0399932861 111 callsubr
          endchar
        </CharString>
        <CharString name="Theta">
          107 -67 callgsubr
          120.339996338 201.679992676 93.9299926758 191.040008545 120.330001831 hstem
          33.2100067139 162.649993896 48.2100067139 202.259994507 48.5800018311 162.63999939 vstem
          345.380004883 710.339996338 120 callsubr
          99.3200073242 50.2100067139 457 callgsubr
          -49.7200012207 -68.0399932861 -99.8099975586 -97.0500030518 -52.4700012207 68.0399932861 175.339996338 175.339996338 51.3399963379 67.9299926758 98.1900024414 hvcurveto
          100.940002441 -284.970001221 rmoveto
          93.9299926758 -202.259994507 -93.9299926758 vlineto
          endchar
        </CharString>
        <CharString name="Thorn">
          16 21 -21 113.919998169 118.589996338 235.220001221 116.960006714 108.669998169 -20 516 callsubr
          531 callgsubr
          168.880004883 vstem
          378 callsubr
          584.699996948 rmoveto
          108.660003662 -164.119995117 51 callsubr
          113.919998169 75.1699981689 vlineto
          160.089996338 114.380004883 75.5899963379 166.979995728 153.979995728 -110.100006104 74.2200012207 -179.070007324 hvcurveto
          -60.4799957275 -352.190002441 rmoveto
          235.240005493 vlineto
          58.2299957275 -0.00999450683594 rlineto
          80.8300018311 41.7100067139 -35.1300048828 -76.4900054932 -92.3600006104 -44.9600067139 -31.2400054932 -74.6000061035 hvcurveto
          endchar
        </CharString>
        <CharString name="U">
          53 callgsubr
          596.279998779 693.36000061 -94 callgsubr
        </CharString>
        <CharString name="Uacute">
          53 callgsubr
          463 -45 callsubr
          373.279998779 -58.1399993896 -94 callgsubr
        </CharString>
        <CharString name="Ubreve">
          67 -67 callgsubr
          122.339996338 588 -20 77.1399993896 110 hstem
          54.5099945068 -30 callgsubr
          213.160003662 164.5 vstem
          325 -74 callgsubr
          271.279998779 -57.1399993896 -94 callgsubr
        </CharString>
        <CharString name="Ucircumflex">
          53 callgsubr
          325 839 rmoveto
          -69 callsubr
          57 -65 rlineto
          403.779998779 -61.1399993896 -94 callgsubr
        </CharString>
        <CharString name="Udieresis">
          67 -67 callgsubr
          122.339996338 588 -20 93.6399993896 158 406 callgsubr
          -90.629989624 162 70 -25 callgsubr
          -89.7100067139 164.5 hintmask 11110010
          209.5 925 rmoveto
          -71 callgsubr
          hvcurveto
          hintmask 11101010
          -23 callsubr
          408 callsubr
          hvcurveto
          hintmask 11110010
          43.5 -35 35 -51 callgsubr
          vhcurveto
          231 hmoveto
          hintmask 11110100
          -44.5 -86 callsubr
          44.5 hvcurveto
          hintmask 11110010
          14 callgsubr
          155.779998779 -231.63999939 -94 callgsubr
        </CharString>
        <CharString name="Ugrave">
          53 callgsubr
          458.5 -8 callsubr
          178.279998779 -58.1399993896 -94 callgsubr
        </CharString>
        <CharString name="Uhungarumlaut">
          53 callgsubr
          388 935.5 -71 callsubr
          155.279998779 -58.1399993896 -94 callgsubr
        </CharString>
        <CharString name="Umacron">
          67 -67 callgsubr
          122.339996338 588 -20 105.13999939 -25 callsubr
          hstem
          54.5099945068 -30 callgsubr
          213.160003662 164.5 vstem
          172 778.5 -52 callsubr
          424.279998779 -194.63999939 -94 callgsubr
        </CharString>
        <CharString name="Uogonek">
          67 -245.509994507 98 131.849990845 121.020004272 -100.020004272 -21 709.020004272 -20 406 callgsubr
          -12.129989624 137 callgsubr
          111.789993286 89 callgsubr
          hintmask 10111010
          596.279998779 693.36000061 278 callsubr
          -456.63999939 hlineto
          hintmask 11011010
          -88.3200073242 -32.0500030518 -43.0399932861 -74.7200012207 -74.3399963379 -32.0500030518 43.0399932861 88.3200073242 vhcurveto
          456.63999939 122 callgsubr
          -463.020004272 vlineto
          -136.619995117 77.7700042725 -97.0800018311 157.830001831 -12.3000030518 vhcurveto
          hintmask 10110110
          -50.8200073242 -24.3099975586 -32.7899932861 -37.2200012207 -51.8200073242 -74 callsubr
          20 callgsubr
          hvcurveto
          105.380004883 35.5599975586 52.8999938965 87.8000030518 106.979995728 vvcurveto
          endchar
        </CharString>
        <CharString name="Upsilon">
          56 callsubr
          379.039993286 260.020004272 rmoveto
          -85 callsubr
        </CharString>
        <CharString name="Upsilondieresis">
          10 442 callgsubr
          470 callsubr
          162 -47.9499969482 89 callgsubr
          -46.5400085449 118 callsubr
          hintmask 11110100
          182 925 -107 callgsubr
          hintmask 11101000
          -33.9600067139 -664.979995728 rmoveto
          -85 callsubr
        </CharString>
        <CharString name="Upsilontonos">
          460 callgsubr
          20.1399993896 -20 hstemhm
          214.550003052 89 callgsubr
          hintmask 10110000
          -20.5 73 callgsubr
          486.539993286 -206.979995728 rmoveto
          hintmask 11010000
          -85 callsubr
        </CharString>
        <CharString name="Uring">
          67 -67 callgsubr
          122.339996338 588 -20 57.1399993896 82 99.5 81 406 callgsubr
          -32.129989624 94 90 94 -32.7100067139 164.5 463 callgsubr
          325.5 993 -78 callsubr
          hintmask 11111001
          270.779998779 -218.63999939 -94 callgsubr
        </CharString>
        <CharString name="Utilde">
          67 -67 callgsubr
          122.339996338 588 -20 87.6399993896 129 callgsubr
          54.5099945068 164.119995117 213.160003662 164.5 523 callgsubr
          386 761 rmoveto
          -77 callsubr
          hintmask 11011100
          0 callgsubr
          -61 callsubr
          hintmask 11101100
          -1 callsubr
          hintmask 11011100
          210.279998779 -67.6399993896 -94 callgsubr
        </CharString>
        <CharString name="V">
          -14 0 127.899993896 -106.899993896 -21 693.36000061 376 callgsubr
          596.929992676 hintmask 01110000
          391.020004272 hmoveto
          192.600006104 119 callgsubr
          -167.600006104 hlineto
          hintmask 10110000
          -124.440002441 -565.460006714 -131.279998779 565.460006714 rlineto
          -173.61000061 hlineto
          200.210006714 81 callgsubr
          endchar
        </CharString>
        <CharString name="W">
          63 callsubr
          721.38999939 hmoveto
          -61 callgsubr
        </CharString>
        <CharString name="Wacute">
          63 callsubr
          562.5 -45 callsubr
          398.88999939 -751.5 rmoveto
          -61 callgsubr
        </CharString>
        <CharString name="Wcircumflex">
          63 callsubr
          424.5 839 rmoveto
          -69 callsubr
          57 -65 rlineto
          429.38999939 -754.5 rmoveto
          -61 callgsubr
        </CharString>
</ttFont>
